# XSI Wavefront OBJ Export v3.0
# File Created: Wed Apr 04 18:29:59 2012
# XSI Version: 8.0.201.0
mtllib Anatomy_Bladder.mtl

o Bladder
# Hierarchy (from self to top father)
g Bladder

#begin 32 vertices
v -0.290121 90.218531 3.391058
v 4.113429 95.455073 0.633561
v -3.301882 97.372950 1.304902
v 3.301882 97.372950 1.304902
v -4.113429 95.455073 8.436417
v 4.113429 95.455073 8.436417
v -3.301882 97.372950 6.767773
v 3.301882 97.372950 6.767773
v -4.113429 95.455073 0.633561
v 3.280235 94.168318 1.322809
v -3.280235 94.168318 6.749866
v 3.280235 94.168318 6.749866
v -3.280235 94.168318 1.322809
v 2.462265 93.553272 1.999463
v -2.462265 93.553272 5.408269
v 2.462265 93.553272 5.408269
v -2.462265 93.553272 1.999463
v 0.989461 93.136978 3.018952
v -0.989461 93.136978 4.388780
v 0.989461 93.136978 4.388780
v -0.989461 93.136978 3.018952
v 0.378973 92.237360 3.295258
v -0.378973 92.237360 4.112474
v 0.378973 92.237360 4.112474
v -0.378973 92.237360 3.295258
v 0.290121 90.468117 3.391058
v -0.290121 90.468117 4.016674
v 0.290121 90.468117 4.016674
v -0.290121 90.468117 3.391058
v 0.290121 90.218531 3.391058
v -0.290121 90.218531 4.016674
v 0.290121 90.218531 4.016674
#end 32 vertices

#begin 120 normals
vn 0.000000 -0.077444 -0.996997
vn 0.000000 0.330387 -0.943846
vn 0.000000 0.330387 -0.943846
vn 0.000000 -0.077444 -0.996997
vn -0.000000 -1.000000 0.000000
vn -0.000000 -1.000000 0.000000
vn -0.000000 -1.000000 0.000000
vn -0.000000 -1.000000 0.000000
vn -0.996204 -0.087052 0.000000
vn -0.996204 -0.087052 0.000000
vn -0.920944 0.389696 0.000000
vn -0.920944 0.389696 0.000000
vn 0.996204 -0.087052 0.000000
vn 0.920944 0.389696 0.000000
vn 0.920944 0.389696 0.000000
vn 0.996204 -0.087052 0.000000
vn 0.000000 1.000000 0.000000
vn 0.000000 0.910051 0.414496
vn 0.000000 0.910051 0.414496
vn 0.000000 1.000000 0.000000
vn 0.000000 0.656386 0.754425
vn 0.000000 0.656386 0.754425
vn 0.000000 0.910051 0.414496
vn 0.000000 0.910051 0.414496
vn 0.000000 -0.077444 -0.996997
vn 0.000000 -0.077444 -0.996997
vn 0.433939 -0.769726 -0.468207
vn -0.433939 -0.769726 -0.468207
vn 0.996204 -0.087052 0.000000
vn 0.996204 -0.087052 0.000000
vn 0.408955 -0.865068 0.290540
vn 0.433939 -0.769726 -0.468207
vn 0.000000 -0.795031 0.606569
vn 0.000000 -0.795031 0.606569
vn -0.408955 -0.865068 0.290540
vn 0.408955 -0.865068 0.290540
vn -0.996204 -0.087052 0.000000
vn -0.996204 -0.087052 0.000000
vn -0.433939 -0.769726 -0.468207
vn -0.408955 -0.865068 0.290540
vn -0.433939 -0.769726 -0.468207
vn 0.433939 -0.769726 -0.468207
vn 0.236609 -0.928937 -0.284765
vn -0.236609 -0.928937 -0.284765
vn 0.433939 -0.769726 -0.468207
vn 0.408955 -0.865068 0.290540
vn 0.230629 -0.950118 0.209968
vn 0.236609 -0.928937 -0.284765
vn 0.408955 -0.865068 0.290540
vn -0.408955 -0.865068 0.290540
vn -0.230629 -0.950118 0.209968
vn 0.230629 -0.950118 0.209968
vn -0.408955 -0.865068 0.290540
vn -0.433939 -0.769726 -0.468207
vn -0.236609 -0.928937 -0.284765
vn -0.230629 -0.950118 0.209968
vn -0.236609 -0.928937 -0.284765
vn 0.236609 -0.928937 -0.284765
vn 0.339083 -0.846031 -0.411406
vn -0.339083 -0.846031 -0.411406
vn 0.236609 -0.928937 -0.284765
vn 0.230629 -0.950118 0.209968
vn 0.339083 -0.846031 0.411406
vn 0.339083 -0.846031 -0.411406
vn 0.230629 -0.950118 0.209968
vn -0.230629 -0.950118 0.209968
vn -0.339083 -0.846031 0.411406
vn 0.339083 -0.846031 0.411406
vn -0.230629 -0.950118 0.209968
vn -0.236609 -0.928937 -0.284765
vn -0.339083 -0.846031 -0.411406
vn -0.339083 -0.846031 0.411406
vn -0.339083 -0.846031 -0.411406
vn 0.339083 -0.846031 -0.411406
vn 0.000000 -0.175135 -0.984544
vn 0.000000 -0.175135 -0.984544
vn 0.339083 -0.846031 -0.411406
vn 0.339083 -0.846031 0.411406
vn 0.948224 -0.317604 0.000000
vn 0.948224 -0.317604 0.000000
vn 0.339083 -0.846031 0.411406
vn -0.339083 -0.846031 0.411406
vn 0.000000 -0.175135 0.984544
vn 0.000000 -0.175135 0.984544
vn -0.339083 -0.846031 0.411406
vn -0.339083 -0.846031 -0.411406
vn -0.948224 -0.317604 0.000000
vn -0.948224 -0.317604 0.000000
vn 0.000000 -0.175135 -0.984544
vn 0.000000 -0.175135 -0.984544
vn 0.000000 -0.027044 -0.999634
vn 0.000000 -0.027044 -0.999634
vn 0.948224 -0.317604 0.000000
vn 0.948224 -0.317604 0.000000
vn 0.999685 -0.025087 0.000000
vn 0.999685 -0.025087 0.000000
vn 0.000000 -0.175135 0.984544
vn 0.000000 -0.175135 0.984544
vn 0.000000 -0.027044 0.999634
vn 0.000000 -0.027044 0.999634
vn -0.948224 -0.317604 0.000000
vn -0.948224 -0.317604 0.000000
vn -0.999685 -0.025087 0.000000
vn -0.999685 -0.025087 0.000000
vn 0.000000 -0.027044 -0.999634
vn 0.000000 -0.027044 -0.999634
vn -0.000000 0.000000 -1.000000
vn -0.000000 0.000000 -1.000000
vn 0.999685 -0.025087 0.000000
vn 0.999685 -0.025087 0.000000
vn 1.000000 0.000000 0.000000
vn 1.000000 0.000000 0.000000
vn 0.000000 -0.027044 0.999634
vn 0.000000 -0.027044 0.999634
vn -0.000000 0.000000 1.000000
vn -0.000000 0.000000 1.000000
vn -0.999685 -0.025087 0.000000
vn -0.999685 -0.025087 0.000000
vn -1.000000 0.000000 0.000000
vn -1.000000 0.000000 0.000000
#end 120 vertex normals

#begin 30 faces
usemtl yellow
f 9//1 3//2 4//3 2//4 
usemtl yellow
f 1//5 30//6 32//7 31//8 
usemtl yellow
f 9//9 5//10 7//11 3//12 
usemtl yellow
f 2//13 4//14 8//15 6//16 
usemtl yellow
f 3//17 7//18 8//19 4//20 
usemtl yellow
f 5//21 6//22 8//23 7//24 
usemtl yellow
f 9//25 2//26 10//27 13//28 
usemtl yellow
f 2//29 6//30 12//31 10//32 
usemtl yellow
f 6//33 5//34 11//35 12//36 
usemtl yellow
f 5//37 9//38 13//39 11//40 
usemtl yellow
f 13//41 10//42 14//43 17//44 
usemtl yellow
f 10//45 12//46 16//47 14//48 
usemtl yellow
f 12//49 11//50 15//51 16//52 
usemtl yellow
f 11//53 13//54 17//55 15//56 
usemtl yellow
f 17//57 14//58 18//59 21//60 
usemtl yellow
f 14//61 16//62 20//63 18//64 
usemtl yellow
f 16//65 15//66 19//67 20//68 
usemtl yellow
f 15//69 17//70 21//71 19//72 
usemtl yellow
f 21//73 18//74 22//75 25//76 
usemtl yellow
f 18//77 20//78 24//79 22//80 
usemtl yellow
f 20//81 19//82 23//83 24//84 
usemtl yellow
f 19//85 21//86 25//87 23//88 
usemtl yellow
f 25//89 22//90 26//91 29//92 
usemtl yellow
f 22//93 24//94 28//95 26//96 
usemtl yellow
f 24//97 23//98 27//99 28//100 
usemtl yellow
f 23//101 25//102 29//103 27//104 
usemtl yellow
f 29//105 26//106 30//107 1//108 
usemtl yellow
f 26//109 28//110 32//111 30//112 
usemtl yellow
f 28//113 27//114 31//115 32//116 
usemtl yellow
f 27//117 29//118 1//119 31//120 
#end 30 faces
