# XSI Wavefront OBJ Export v3.0
# File Created: Wed Apr 04 18:30:04 2012
# XSI Version: 8.0.201.0
mtllib Anatomy_Lens_R.mtl

o Lens_R
# Hierarchy (from self to top father)
g Lens_R

#begin 72 vertices
v -3.129241 166.990862 6.671105
v -3.141692 166.990862 6.893252
v -2.967951 166.990862 6.688627
v -2.832165 166.990862 6.720392
v -2.742553 166.990862 6.761562
v -2.712759 166.990862 6.805872
v -2.747318 166.990862 6.846574
v -2.840969 166.990862 6.877473
v -2.979455 166.990862 6.893864
v -2.998845 166.895630 6.686896
v -2.889249 166.814897 6.717192
v -2.817138 166.760953 6.757382
v -2.793489 166.742010 6.801347
v -2.821903 166.760953 6.842394
v -2.898054 166.814897 6.874274
v -3.010349 166.895630 6.892133
v -3.079727 166.836774 6.682362
v -3.038699 166.706145 6.708815
v -3.012403 166.618862 6.746437
v -3.004843 166.588212 6.789500
v -3.017168 166.618862 6.831449
v -3.047504 166.706145 6.865897
v -3.091231 166.836774 6.887599
v -3.179702 166.836774 6.676759
v -3.223429 166.706145 6.698461
v -3.253765 166.618862 6.732909
v -3.266090 166.588212 6.774857
v -3.258530 166.618862 6.817921
v -3.232234 166.706145 6.855543
v -3.191206 166.836774 6.881996
v -3.260584 166.895630 6.672225
v -3.372879 166.814897 6.690084
v -3.449030 166.760953 6.721964
v -3.477444 166.742010 6.763011
v -3.453795 166.760953 6.806976
v -3.381683 166.814897 6.847166
v -3.272087 166.895630 6.877462
v -3.291478 166.990862 6.670493
v -3.429964 166.990862 6.686885
v -3.523615 166.990862 6.717783
v -3.558174 166.990862 6.758486
v -3.528380 166.990862 6.802795
v -3.438768 166.990862 6.843966
v -3.302981 166.990862 6.875730
v -3.260584 167.086093 6.672225
v -3.372879 167.166826 6.690084
v -3.449030 167.220770 6.721964
v -3.477444 167.239713 6.763011
v -3.453795 167.220770 6.806976
v -3.381683 167.166826 6.847166
v -3.272087 167.086093 6.877462
v -3.179702 167.144949 6.676759
v -3.223429 167.275578 6.698461
v -3.253765 167.362862 6.732909
v -3.266090 167.393512 6.774857
v -3.258530 167.362862 6.817921
v -3.232234 167.275578 6.855543
v -3.191206 167.144949 6.881996
v -3.079727 167.144949 6.682362
v -3.038699 167.275578 6.708815
v -3.012403 167.362862 6.746437
v -3.004843 167.393512 6.789500
v -3.017168 167.362862 6.831449
v -3.047504 167.275578 6.865897
v -3.091231 167.144949 6.887599
v -2.998845 167.086093 6.686896
v -2.889249 167.166826 6.717192
v -2.817138 167.220770 6.757382
v -2.793489 167.239713 6.801347
v -2.821903 167.220770 6.842394
v -2.898054 167.166826 6.874274
v -3.010349 167.086093 6.892133
#end 72 vertices

#begin 300 normals
vn 0.146662 -0.066260 -0.986965
vn 0.168157 0.000000 -0.985760
vn 0.055963 0.000000 -0.998433
vn 0.168157 0.000000 -0.985760
vn 0.146662 -0.066260 -0.986965
vn 0.272415 -0.159027 -0.948947
vn 0.324005 0.000000 -0.946055
vn 0.324005 0.000000 -0.946055
vn 0.272415 -0.159027 -0.948947
vn 0.530447 -0.353460 -0.770514
vn 0.645113 0.000000 -0.764087
vn 0.645113 0.000000 -0.764087
vn 0.530447 -0.353460 -0.770514
vn 0.677808 -0.468650 -0.566518
vn 0.829843 0.000000 -0.557996
vn 0.762289 0.000000 0.647236
vn 0.610254 -0.468650 0.638715
vn 0.441019 -0.353460 0.824966
vn 0.555685 -0.000000 0.831393
vn 0.555685 -0.000000 0.831393
vn 0.441019 -0.353460 0.824966
vn 0.164664 -0.159027 0.973446
vn 0.216254 -0.000000 0.976337
vn 0.216254 -0.000000 0.976337
vn 0.164664 -0.159027 0.973446
vn 0.035450 -0.066260 0.997172
vn 0.056945 0.000000 0.998377
vn 0.056945 0.000000 0.998377
vn 0.035450 -0.066260 0.997172
vn -0.055963 0.000000 0.998433
vn 0.090386 -0.107211 -0.990119
vn 0.146662 -0.066260 -0.986965
vn 0.055963 0.000000 -0.998433
vn 0.146662 -0.066260 -0.986965
vn 0.090386 -0.107211 -0.990119
vn 0.137350 -0.257312 -0.956517
vn 0.272415 -0.159027 -0.948947
vn 0.272415 -0.159027 -0.948947
vn 0.137350 -0.257312 -0.956517
vn 0.230247 -0.571910 -0.787341
vn 0.530447 -0.353460 -0.770514
vn 0.530447 -0.353460 -0.770514
vn 0.230247 -0.571910 -0.787341
vn 0.279775 -0.758292 -0.588828
vn 0.677808 -0.468650 -0.566518
vn 0.610254 -0.468650 0.638715
vn 0.212221 -0.758292 0.616405
vn 0.140820 -0.571910 0.808139
vn 0.441019 -0.353460 0.824966
vn 0.441019 -0.353460 0.824966
vn 0.140820 -0.571910 0.808139
vn 0.029599 -0.257312 0.965875
vn 0.164664 -0.159027 0.973446
vn 0.164664 -0.159027 0.973446
vn 0.029599 -0.257312 0.965875
vn -0.020826 -0.107211 0.994018
vn 0.035450 -0.066260 0.997172
vn 0.035450 -0.066260 0.997172
vn -0.020826 -0.107211 0.994018
vn -0.055963 0.000000 0.998433
vn 0.020826 -0.107211 -0.994018
vn 0.090386 -0.107211 -0.990119
vn 0.055963 0.000000 -0.998433
vn 0.090386 -0.107211 -0.990119
vn 0.020826 -0.107211 -0.994018
vn -0.029599 -0.257312 -0.965875
vn 0.137350 -0.257312 -0.956517
vn 0.137350 -0.257312 -0.956517
vn -0.029599 -0.257312 -0.965875
vn -0.140820 -0.571910 -0.808139
vn 0.230247 -0.571910 -0.787341
vn 0.230247 -0.571910 -0.787341
vn -0.140820 -0.571910 -0.808139
vn -0.212221 -0.758292 -0.616405
vn 0.279775 -0.758292 -0.588828
vn 0.212221 -0.758292 0.616405
vn -0.279775 -0.758292 0.588828
vn -0.230247 -0.571910 0.787341
vn 0.140820 -0.571910 0.808139
vn 0.140820 -0.571910 0.808139
vn -0.230247 -0.571910 0.787341
vn -0.137350 -0.257312 0.956517
vn 0.029599 -0.257312 0.965875
vn 0.029599 -0.257312 0.965875
vn -0.137350 -0.257312 0.956517
vn -0.090386 -0.107211 0.990119
vn -0.020826 -0.107211 0.994018
vn -0.020826 -0.107211 0.994018
vn -0.090386 -0.107211 0.990119
vn -0.055963 0.000000 0.998433
vn -0.035450 -0.066260 -0.997172
vn 0.020826 -0.107211 -0.994018
vn 0.055963 0.000000 -0.998433
vn 0.020826 -0.107211 -0.994018
vn -0.035450 -0.066260 -0.997172
vn -0.164664 -0.159027 -0.973446
vn -0.029599 -0.257312 -0.965875
vn -0.029599 -0.257312 -0.965875
vn -0.164664 -0.159027 -0.973446
vn -0.441019 -0.353460 -0.824966
vn -0.140820 -0.571910 -0.808139
vn -0.140820 -0.571910 -0.808139
vn -0.441019 -0.353460 -0.824966
vn -0.610254 -0.468650 -0.638715
vn -0.212221 -0.758292 -0.616405
vn -0.279775 -0.758292 0.588828
vn -0.677808 -0.468650 0.566518
vn -0.530447 -0.353460 0.770514
vn -0.230247 -0.571910 0.787341
vn -0.230247 -0.571910 0.787341
vn -0.530447 -0.353460 0.770514
vn -0.272415 -0.159027 0.948947
vn -0.137350 -0.257312 0.956517
vn -0.137350 -0.257312 0.956517
vn -0.272415 -0.159027 0.948947
vn -0.146662 -0.066260 0.986965
vn -0.090386 -0.107211 0.990119
vn -0.090386 -0.107211 0.990119
vn -0.146662 -0.066260 0.986965
vn -0.055963 0.000000 0.998433
vn -0.056945 0.000000 -0.998377
vn -0.035450 -0.066260 -0.997172
vn 0.055963 0.000000 -0.998433
vn -0.035450 -0.066260 -0.997172
vn -0.056945 0.000000 -0.998377
vn -0.216254 0.000000 -0.976337
vn -0.164664 -0.159027 -0.973446
vn -0.164664 -0.159027 -0.973446
vn -0.216254 0.000000 -0.976337
vn -0.555685 0.000000 -0.831393
vn -0.441019 -0.353460 -0.824966
vn -0.441019 -0.353460 -0.824966
vn -0.555685 0.000000 -0.831393
vn -0.762289 0.000000 -0.647236
vn -0.610254 -0.468650 -0.638715
vn -0.677808 -0.468650 0.566518
vn -0.829843 0.000000 0.557996
vn -0.645113 -0.000000 0.764087
vn -0.530447 -0.353460 0.770514
vn -0.530447 -0.353460 0.770514
vn -0.645113 -0.000000 0.764087
vn -0.324005 -0.000000 0.946055
vn -0.272415 -0.159027 0.948947
vn -0.272415 -0.159027 0.948947
vn -0.324005 -0.000000 0.946055
vn -0.168157 0.000000 0.985760
vn -0.146662 -0.066260 0.986965
vn -0.146662 -0.066260 0.986965
vn -0.168157 0.000000 0.985760
vn -0.055963 0.000000 0.998433
vn -0.035450 0.066260 -0.997172
vn -0.056945 0.000000 -0.998377
vn 0.055963 0.000000 -0.998433
vn -0.056945 0.000000 -0.998377
vn -0.035450 0.066260 -0.997172
vn -0.164664 0.159027 -0.973446
vn -0.216254 0.000000 -0.976337
vn -0.216254 0.000000 -0.976337
vn -0.164664 0.159027 -0.973446
vn -0.441019 0.353460 -0.824966
vn -0.555685 0.000000 -0.831393
vn -0.555685 0.000000 -0.831393
vn -0.441019 0.353460 -0.824966
vn -0.610254 0.468650 -0.638715
vn -0.762289 0.000000 -0.647236
vn -0.829843 0.000000 0.557996
vn -0.677808 0.468650 0.566518
vn -0.530447 0.353460 0.770514
vn -0.645113 -0.000000 0.764087
vn -0.645113 -0.000000 0.764087
vn -0.530447 0.353460 0.770514
vn -0.272415 0.159027 0.948947
vn -0.324005 -0.000000 0.946055
vn -0.324005 -0.000000 0.946055
vn -0.272415 0.159027 0.948947
vn -0.146662 0.066260 0.986965
vn -0.168157 0.000000 0.985760
vn -0.168157 0.000000 0.985760
vn -0.146662 0.066260 0.986965
vn -0.055963 0.000000 0.998433
vn 0.020826 0.107211 -0.994018
vn -0.035450 0.066260 -0.997172
vn 0.055963 0.000000 -0.998433
vn -0.035450 0.066260 -0.997172
vn 0.020826 0.107211 -0.994018
vn -0.029599 0.257312 -0.965875
vn -0.164664 0.159027 -0.973446
vn -0.164664 0.159027 -0.973446
vn -0.029599 0.257312 -0.965875
vn -0.140820 0.571910 -0.808139
vn -0.441019 0.353460 -0.824966
vn -0.441019 0.353460 -0.824966
vn -0.140820 0.571910 -0.808139
vn -0.212221 0.758292 -0.616405
vn -0.610254 0.468650 -0.638715
vn -0.677808 0.468650 0.566518
vn -0.279775 0.758292 0.588828
vn -0.230247 0.571910 0.787341
vn -0.530447 0.353460 0.770514
vn -0.530447 0.353460 0.770514
vn -0.230247 0.571910 0.787341
vn -0.137350 0.257312 0.956517
vn -0.272415 0.159027 0.948947
vn -0.272415 0.159027 0.948947
vn -0.137350 0.257312 0.956517
vn -0.090386 0.107211 0.990119
vn -0.146662 0.066260 0.986965
vn -0.146662 0.066260 0.986965
vn -0.090386 0.107211 0.990119
vn -0.055963 0.000000 0.998433
vn 0.090386 0.107211 -0.990119
vn 0.020826 0.107211 -0.994018
vn 0.055963 0.000000 -0.998433
vn 0.020826 0.107211 -0.994018
vn 0.090386 0.107211 -0.990119
vn 0.137350 0.257312 -0.956517
vn -0.029599 0.257312 -0.965875
vn -0.029599 0.257312 -0.965875
vn 0.137350 0.257312 -0.956517
vn 0.230247 0.571910 -0.787341
vn -0.140820 0.571910 -0.808139
vn -0.140820 0.571910 -0.808139
vn 0.230247 0.571910 -0.787341
vn 0.279775 0.758292 -0.588828
vn -0.212221 0.758292 -0.616405
vn -0.279775 0.758292 0.588828
vn 0.212221 0.758292 0.616405
vn 0.140820 0.571910 0.808139
vn -0.230247 0.571910 0.787341
vn -0.230247 0.571910 0.787341
vn 0.140820 0.571910 0.808139
vn 0.029599 0.257312 0.965875
vn -0.137350 0.257312 0.956517
vn -0.137350 0.257312 0.956517
vn 0.029599 0.257312 0.965875
vn -0.020826 0.107211 0.994018
vn -0.090386 0.107211 0.990119
vn -0.090386 0.107211 0.990119
vn -0.020826 0.107211 0.994018
vn -0.055963 0.000000 0.998433
vn 0.146662 0.066260 -0.986965
vn 0.090386 0.107211 -0.990119
vn 0.055963 0.000000 -0.998433
vn 0.090386 0.107211 -0.990119
vn 0.146662 0.066260 -0.986965
vn 0.272415 0.159027 -0.948947
vn 0.137350 0.257312 -0.956517
vn 0.137350 0.257312 -0.956517
vn 0.272415 0.159027 -0.948947
vn 0.530447 0.353460 -0.770514
vn 0.230247 0.571910 -0.787341
vn 0.230247 0.571910 -0.787341
vn 0.530447 0.353460 -0.770514
vn 0.677808 0.468650 -0.566518
vn 0.279775 0.758292 -0.588828
vn 0.212221 0.758292 0.616405
vn 0.610254 0.468650 0.638715
vn 0.441019 0.353460 0.824966
vn 0.140820 0.571910 0.808139
vn 0.140820 0.571910 0.808139
vn 0.441019 0.353460 0.824966
vn 0.164664 0.159027 0.973446
vn 0.029599 0.257312 0.965875
vn 0.029599 0.257312 0.965875
vn 0.164664 0.159027 0.973446
vn 0.035450 0.066260 0.997172
vn -0.020826 0.107211 0.994018
vn -0.020826 0.107211 0.994018
vn 0.035450 0.066260 0.997172
vn -0.055963 0.000000 0.998433
vn 0.168157 0.000000 -0.985760
vn 0.146662 0.066260 -0.986965
vn 0.055963 0.000000 -0.998433
vn 0.146662 0.066260 -0.986965
vn 0.168157 0.000000 -0.985760
vn 0.324005 0.000000 -0.946055
vn 0.272415 0.159027 -0.948947
vn 0.272415 0.159027 -0.948947
vn 0.324005 0.000000 -0.946055
vn 0.645113 0.000000 -0.764087
vn 0.530447 0.353460 -0.770514
vn 0.530447 0.353460 -0.770514
vn 0.645113 0.000000 -0.764087
vn 0.829843 0.000000 -0.557996
vn 0.677808 0.468650 -0.566518
vn 0.610254 0.468650 0.638715
vn 0.762289 0.000000 0.647236
vn 0.555685 -0.000000 0.831393
vn 0.441019 0.353460 0.824966
vn 0.441019 0.353460 0.824966
vn 0.555685 -0.000000 0.831393
vn 0.216254 -0.000000 0.976337
vn 0.164664 0.159027 0.973446
vn 0.164664 0.159027 0.973446
vn 0.216254 -0.000000 0.976337
vn 0.056945 0.000000 0.998377
vn 0.035450 0.066260 0.997172
vn 0.035450 0.066260 0.997172
vn 0.056945 0.000000 0.998377
vn -0.055963 0.000000 0.998433
#end 300 vertex normals

#begin 80 faces
usemtl lens_black
f 1//3 3//2 10//1 
usemtl lens_black
f 4//7 11//6 10//5 3//4 
usemtl lens_black
f 5//11 12//10 11//9 4//8 
usemtl lens_black
f 6//15 13//14 12//13 5//12 
usemtl lens_black
f 7//19 14//18 13//17 6//16 
usemtl lens_black
f 8//23 15//22 14//21 7//20 
usemtl lens_black
f 9//27 16//26 15//25 8//24 
usemtl lens_black
f 2//30 16//29 9//28 
usemtl lens_black
f 1//33 10//32 17//31 
usemtl lens_black
f 11//37 18//36 17//35 10//34 
usemtl lens_black
f 12//41 19//40 18//39 11//38 
usemtl lens_black
f 13//45 20//44 19//43 12//42 
usemtl lens_black
f 14//49 21//48 20//47 13//46 
usemtl lens_black
f 15//53 22//52 21//51 14//50 
usemtl lens_black
f 16//57 23//56 22//55 15//54 
usemtl lens_black
f 2//60 23//59 16//58 
usemtl lens_black
f 1//63 17//62 24//61 
usemtl lens_black
f 18//67 25//66 24//65 17//64 
usemtl lens_black
f 19//71 26//70 25//69 18//68 
usemtl lens_black
f 20//75 27//74 26//73 19//72 
usemtl lens_black
f 21//79 28//78 27//77 20//76 
usemtl lens_black
f 22//83 29//82 28//81 21//80 
usemtl lens_black
f 23//87 30//86 29//85 22//84 
usemtl lens_black
f 2//90 30//89 23//88 
usemtl lens_black
f 1//93 24//92 31//91 
usemtl lens_black
f 25//97 32//96 31//95 24//94 
usemtl lens_black
f 26//101 33//100 32//99 25//98 
usemtl lens_black
f 27//105 34//104 33//103 26//102 
usemtl lens_black
f 28//109 35//108 34//107 27//106 
usemtl lens_black
f 29//113 36//112 35//111 28//110 
usemtl lens_black
f 30//117 37//116 36//115 29//114 
usemtl lens_black
f 2//120 37//119 30//118 
usemtl lens_black
f 1//123 31//122 38//121 
usemtl lens_black
f 32//127 39//126 38//125 31//124 
usemtl lens_black
f 33//131 40//130 39//129 32//128 
usemtl lens_black
f 34//135 41//134 40//133 33//132 
usemtl lens_black
f 35//139 42//138 41//137 34//136 
usemtl lens_black
f 36//143 43//142 42//141 35//140 
usemtl lens_black
f 37//147 44//146 43//145 36//144 
usemtl lens_black
f 2//150 44//149 37//148 
usemtl lens_black
f 1//153 38//152 45//151 
usemtl lens_black
f 39//157 46//156 45//155 38//154 
usemtl lens_black
f 40//161 47//160 46//159 39//158 
usemtl lens_black
f 41//165 48//164 47//163 40//162 
usemtl lens_black
f 42//169 49//168 48//167 41//166 
usemtl lens_black
f 43//173 50//172 49//171 42//170 
usemtl lens_black
f 44//177 51//176 50//175 43//174 
usemtl lens_black
f 2//180 51//179 44//178 
usemtl lens_black
f 1//183 45//182 52//181 
usemtl lens_black
f 46//187 53//186 52//185 45//184 
usemtl lens_black
f 47//191 54//190 53//189 46//188 
usemtl lens_black
f 48//195 55//194 54//193 47//192 
usemtl lens_black
f 49//199 56//198 55//197 48//196 
usemtl lens_black
f 50//203 57//202 56//201 49//200 
usemtl lens_black
f 51//207 58//206 57//205 50//204 
usemtl lens_black
f 2//210 58//209 51//208 
usemtl lens_black
f 1//213 52//212 59//211 
usemtl lens_black
f 53//217 60//216 59//215 52//214 
usemtl lens_black
f 54//221 61//220 60//219 53//218 
usemtl lens_black
f 55//225 62//224 61//223 54//222 
usemtl lens_black
f 56//229 63//228 62//227 55//226 
usemtl lens_black
f 57//233 64//232 63//231 56//230 
usemtl lens_black
f 58//237 65//236 64//235 57//234 
usemtl lens_black
f 2//240 65//239 58//238 
usemtl lens_black
f 1//243 59//242 66//241 
usemtl lens_black
f 60//247 67//246 66//245 59//244 
usemtl lens_black
f 61//251 68//250 67//249 60//248 
usemtl lens_black
f 62//255 69//254 68//253 61//252 
usemtl lens_black
f 63//259 70//258 69//257 62//256 
usemtl lens_black
f 64//263 71//262 70//261 63//260 
usemtl lens_black
f 65//267 72//266 71//265 64//264 
usemtl lens_black
f 2//270 72//269 65//268 
usemtl lens_black
f 1//273 66//272 3//271 
usemtl lens_black
f 67//277 4//276 3//275 66//274 
usemtl lens_black
f 68//281 5//280 4//279 67//278 
usemtl lens_black
f 69//285 6//284 5//283 68//282 
usemtl lens_black
f 70//289 7//288 6//287 69//286 
usemtl lens_black
f 71//293 8//292 7//291 70//290 
usemtl lens_black
f 72//297 9//296 8//295 71//294 
usemtl lens_black
f 2//300 9//299 72//298 
#end 80 faces
