# XSI Wavefront OBJ Export v3.0
# File Created: Wed Apr 04 18:30:04 2012
# XSI Version: 8.0.201.0
mtllib Anatomy_Lens_L.mtl

o Lens_L
# Hierarchy (from self to top father)
g Lens_L

#begin 72 vertices
v 3.129241 166.990862 6.671105
v 3.141692 166.990862 6.893252
v 2.967951 166.990862 6.688627
v 2.832165 166.990862 6.720392
v 2.742553 166.990862 6.761562
v 2.712759 166.990862 6.805872
v 2.747318 166.990862 6.846574
v 2.840969 166.990862 6.877473
v 2.979455 166.990862 6.893864
v 2.998845 166.895630 6.686896
v 2.889249 166.814897 6.717192
v 2.817138 166.760953 6.757382
v 2.793489 166.742010 6.801347
v 2.821903 166.760953 6.842394
v 2.898054 166.814897 6.874274
v 3.010349 166.895630 6.892133
v 3.079727 166.836774 6.682362
v 3.038699 166.706145 6.708815
v 3.012403 166.618862 6.746437
v 3.004843 166.588212 6.789500
v 3.017168 166.618862 6.831449
v 3.047504 166.706145 6.865897
v 3.091231 166.836774 6.887599
v 3.179702 166.836774 6.676759
v 3.223429 166.706145 6.698461
v 3.253765 166.618862 6.732909
v 3.266090 166.588212 6.774857
v 3.258530 166.618862 6.817921
v 3.232234 166.706145 6.855543
v 3.191206 166.836774 6.881996
v 3.260584 166.895630 6.672225
v 3.372879 166.814897 6.690084
v 3.449030 166.760953 6.721964
v 3.477444 166.742010 6.763011
v 3.453795 166.760953 6.806976
v 3.381683 166.814897 6.847166
v 3.272087 166.895630 6.877462
v 3.291478 166.990862 6.670493
v 3.429964 166.990862 6.686885
v 3.523615 166.990862 6.717783
v 3.558174 166.990862 6.758486
v 3.528380 166.990862 6.802795
v 3.438768 166.990862 6.843966
v 3.302981 166.990862 6.875730
v 3.260584 167.086093 6.672225
v 3.372879 167.166826 6.690084
v 3.449030 167.220770 6.721964
v 3.477444 167.239713 6.763011
v 3.453795 167.220770 6.806976
v 3.381683 167.166826 6.847166
v 3.272087 167.086093 6.877462
v 3.179702 167.144949 6.676759
v 3.223429 167.275578 6.698461
v 3.253765 167.362862 6.732909
v 3.266090 167.393512 6.774857
v 3.258530 167.362862 6.817921
v 3.232234 167.275578 6.855543
v 3.191206 167.144949 6.881996
v 3.079727 167.144949 6.682362
v 3.038699 167.275578 6.708815
v 3.012403 167.362862 6.746437
v 3.004843 167.393512 6.789500
v 3.017168 167.362862 6.831449
v 3.047504 167.275578 6.865897
v 3.091231 167.144949 6.887599
v 2.998845 167.086093 6.686896
v 2.889249 167.166826 6.717192
v 2.817138 167.220770 6.757382
v 2.793489 167.239713 6.801347
v 2.821903 167.220770 6.842394
v 2.898054 167.166826 6.874274
v 3.010349 167.086093 6.892133
#end 72 vertices

#begin 300 normals
vn -0.146662 -0.066260 -0.986965
vn -0.168157 0.000000 -0.985760
vn -0.055963 0.000000 -0.998433
vn -0.168157 0.000000 -0.985760
vn -0.146662 -0.066260 -0.986965
vn -0.272415 -0.159027 -0.948947
vn -0.324005 0.000000 -0.946055
vn -0.324005 0.000000 -0.946055
vn -0.272415 -0.159027 -0.948947
vn -0.530447 -0.353460 -0.770514
vn -0.645113 0.000000 -0.764087
vn -0.645113 0.000000 -0.764087
vn -0.530447 -0.353460 -0.770514
vn -0.677808 -0.468650 -0.566518
vn -0.829843 0.000000 -0.557996
vn -0.762289 0.000000 0.647236
vn -0.610254 -0.468650 0.638715
vn -0.441019 -0.353460 0.824966
vn -0.555685 -0.000000 0.831393
vn -0.555685 -0.000000 0.831393
vn -0.441019 -0.353460 0.824966
vn -0.164664 -0.159027 0.973446
vn -0.216254 -0.000000 0.976337
vn -0.216254 -0.000000 0.976337
vn -0.164664 -0.159027 0.973446
vn -0.035450 -0.066260 0.997172
vn -0.056945 0.000000 0.998377
vn -0.056945 0.000000 0.998377
vn -0.035450 -0.066260 0.997172
vn 0.055963 0.000000 0.998433
vn -0.090386 -0.107211 -0.990119
vn -0.146662 -0.066260 -0.986965
vn -0.055963 0.000000 -0.998433
vn -0.146662 -0.066260 -0.986965
vn -0.090386 -0.107211 -0.990119
vn -0.137350 -0.257312 -0.956517
vn -0.272415 -0.159027 -0.948947
vn -0.272415 -0.159027 -0.948947
vn -0.137350 -0.257312 -0.956517
vn -0.230247 -0.571910 -0.787341
vn -0.530447 -0.353460 -0.770514
vn -0.530447 -0.353460 -0.770514
vn -0.230247 -0.571910 -0.787341
vn -0.279775 -0.758292 -0.588828
vn -0.677808 -0.468650 -0.566518
vn -0.610254 -0.468650 0.638715
vn -0.212221 -0.758292 0.616405
vn -0.140820 -0.571910 0.808139
vn -0.441019 -0.353460 0.824966
vn -0.441019 -0.353460 0.824966
vn -0.140820 -0.571910 0.808139
vn -0.029599 -0.257312 0.965875
vn -0.164664 -0.159027 0.973446
vn -0.164664 -0.159027 0.973446
vn -0.029599 -0.257312 0.965875
vn 0.020826 -0.107211 0.994018
vn -0.035450 -0.066260 0.997172
vn -0.035450 -0.066260 0.997172
vn 0.020826 -0.107211 0.994018
vn 0.055963 0.000000 0.998433
vn -0.020826 -0.107211 -0.994018
vn -0.090386 -0.107211 -0.990119
vn -0.055963 0.000000 -0.998433
vn -0.090386 -0.107211 -0.990119
vn -0.020826 -0.107211 -0.994018
vn 0.029599 -0.257312 -0.965875
vn -0.137350 -0.257312 -0.956517
vn -0.137350 -0.257312 -0.956517
vn 0.029599 -0.257312 -0.965875
vn 0.140820 -0.571910 -0.808139
vn -0.230247 -0.571910 -0.787341
vn -0.230247 -0.571910 -0.787341
vn 0.140820 -0.571910 -0.808139
vn 0.212221 -0.758292 -0.616405
vn -0.279775 -0.758292 -0.588828
vn -0.212221 -0.758292 0.616405
vn 0.279775 -0.758292 0.588828
vn 0.230247 -0.571910 0.787341
vn -0.140820 -0.571910 0.808139
vn -0.140820 -0.571910 0.808139
vn 0.230247 -0.571910 0.787341
vn 0.137350 -0.257312 0.956517
vn -0.029599 -0.257312 0.965875
vn -0.029599 -0.257312 0.965875
vn 0.137350 -0.257312 0.956517
vn 0.090386 -0.107211 0.990119
vn 0.020826 -0.107211 0.994018
vn 0.020826 -0.107211 0.994018
vn 0.090386 -0.107211 0.990119
vn 0.055963 0.000000 0.998433
vn 0.035450 -0.066260 -0.997172
vn -0.020826 -0.107211 -0.994018
vn -0.055963 0.000000 -0.998433
vn -0.020826 -0.107211 -0.994018
vn 0.035450 -0.066260 -0.997172
vn 0.164664 -0.159027 -0.973446
vn 0.029599 -0.257312 -0.965875
vn 0.029599 -0.257312 -0.965875
vn 0.164664 -0.159027 -0.973446
vn 0.441019 -0.353460 -0.824966
vn 0.140820 -0.571910 -0.808139
vn 0.140820 -0.571910 -0.808139
vn 0.441019 -0.353460 -0.824966
vn 0.610254 -0.468650 -0.638715
vn 0.212221 -0.758292 -0.616405
vn 0.279775 -0.758292 0.588828
vn 0.677808 -0.468650 0.566518
vn 0.530447 -0.353460 0.770514
vn 0.230247 -0.571910 0.787341
vn 0.230247 -0.571910 0.787341
vn 0.530447 -0.353460 0.770514
vn 0.272415 -0.159027 0.948947
vn 0.137350 -0.257312 0.956517
vn 0.137350 -0.257312 0.956517
vn 0.272415 -0.159027 0.948947
vn 0.146662 -0.066260 0.986965
vn 0.090386 -0.107211 0.990119
vn 0.090386 -0.107211 0.990119
vn 0.146662 -0.066260 0.986965
vn 0.055963 0.000000 0.998433
vn 0.056945 0.000000 -0.998377
vn 0.035450 -0.066260 -0.997172
vn -0.055963 0.000000 -0.998433
vn 0.035450 -0.066260 -0.997172
vn 0.056945 0.000000 -0.998377
vn 0.216254 0.000000 -0.976337
vn 0.164664 -0.159027 -0.973446
vn 0.164664 -0.159027 -0.973446
vn 0.216254 0.000000 -0.976337
vn 0.555685 0.000000 -0.831393
vn 0.441019 -0.353460 -0.824966
vn 0.441019 -0.353460 -0.824966
vn 0.555685 0.000000 -0.831393
vn 0.762289 0.000000 -0.647236
vn 0.610254 -0.468650 -0.638715
vn 0.677808 -0.468650 0.566518
vn 0.829843 0.000000 0.557996
vn 0.645113 -0.000000 0.764087
vn 0.530447 -0.353460 0.770514
vn 0.530447 -0.353460 0.770514
vn 0.645113 -0.000000 0.764087
vn 0.324005 -0.000000 0.946055
vn 0.272415 -0.159027 0.948947
vn 0.272415 -0.159027 0.948947
vn 0.324005 -0.000000 0.946055
vn 0.168157 0.000000 0.985760
vn 0.146662 -0.066260 0.986965
vn 0.146662 -0.066260 0.986965
vn 0.168157 0.000000 0.985760
vn 0.055963 0.000000 0.998433
vn 0.035450 0.066260 -0.997172
vn 0.056945 0.000000 -0.998377
vn -0.055963 0.000000 -0.998433
vn 0.056945 0.000000 -0.998377
vn 0.035450 0.066260 -0.997172
vn 0.164664 0.159027 -0.973446
vn 0.216254 0.000000 -0.976337
vn 0.216254 0.000000 -0.976337
vn 0.164664 0.159027 -0.973446
vn 0.441019 0.353460 -0.824966
vn 0.555685 0.000000 -0.831393
vn 0.555685 0.000000 -0.831393
vn 0.441019 0.353460 -0.824966
vn 0.610254 0.468650 -0.638715
vn 0.762289 0.000000 -0.647236
vn 0.829843 0.000000 0.557996
vn 0.677808 0.468650 0.566518
vn 0.530447 0.353460 0.770514
vn 0.645113 -0.000000 0.764087
vn 0.645113 -0.000000 0.764087
vn 0.530447 0.353460 0.770514
vn 0.272415 0.159027 0.948947
vn 0.324005 -0.000000 0.946055
vn 0.324005 -0.000000 0.946055
vn 0.272415 0.159027 0.948947
vn 0.146662 0.066260 0.986965
vn 0.168157 0.000000 0.985760
vn 0.168157 0.000000 0.985760
vn 0.146662 0.066260 0.986965
vn 0.055963 0.000000 0.998433
vn -0.020826 0.107211 -0.994018
vn 0.035450 0.066260 -0.997172
vn -0.055963 0.000000 -0.998433
vn 0.035450 0.066260 -0.997172
vn -0.020826 0.107211 -0.994018
vn 0.029599 0.257312 -0.965875
vn 0.164664 0.159027 -0.973446
vn 0.164664 0.159027 -0.973446
vn 0.029599 0.257312 -0.965875
vn 0.140820 0.571910 -0.808139
vn 0.441019 0.353460 -0.824966
vn 0.441019 0.353460 -0.824966
vn 0.140820 0.571910 -0.808139
vn 0.212221 0.758292 -0.616405
vn 0.610254 0.468650 -0.638715
vn 0.677808 0.468650 0.566518
vn 0.279775 0.758292 0.588828
vn 0.230247 0.571910 0.787341
vn 0.530447 0.353460 0.770514
vn 0.530447 0.353460 0.770514
vn 0.230247 0.571910 0.787341
vn 0.137350 0.257312 0.956517
vn 0.272415 0.159027 0.948947
vn 0.272415 0.159027 0.948947
vn 0.137350 0.257312 0.956517
vn 0.090386 0.107211 0.990119
vn 0.146662 0.066260 0.986965
vn 0.146662 0.066260 0.986965
vn 0.090386 0.107211 0.990119
vn 0.055963 0.000000 0.998433
vn -0.090386 0.107211 -0.990119
vn -0.020826 0.107211 -0.994018
vn -0.055963 0.000000 -0.998433
vn -0.020826 0.107211 -0.994018
vn -0.090386 0.107211 -0.990119
vn -0.137350 0.257312 -0.956517
vn 0.029599 0.257312 -0.965875
vn 0.029599 0.257312 -0.965875
vn -0.137350 0.257312 -0.956517
vn -0.230247 0.571910 -0.787341
vn 0.140820 0.571910 -0.808139
vn 0.140820 0.571910 -0.808139
vn -0.230247 0.571910 -0.787341
vn -0.279775 0.758292 -0.588828
vn 0.212221 0.758292 -0.616405
vn 0.279775 0.758292 0.588828
vn -0.212221 0.758292 0.616405
vn -0.140820 0.571910 0.808139
vn 0.230247 0.571910 0.787341
vn 0.230247 0.571910 0.787341
vn -0.140820 0.571910 0.808139
vn -0.029599 0.257312 0.965875
vn 0.137350 0.257312 0.956517
vn 0.137350 0.257312 0.956517
vn -0.029599 0.257312 0.965875
vn 0.020826 0.107211 0.994018
vn 0.090386 0.107211 0.990119
vn 0.090386 0.107211 0.990119
vn 0.020826 0.107211 0.994018
vn 0.055963 0.000000 0.998433
vn -0.146662 0.066260 -0.986965
vn -0.090386 0.107211 -0.990119
vn -0.055963 0.000000 -0.998433
vn -0.090386 0.107211 -0.990119
vn -0.146662 0.066260 -0.986965
vn -0.272415 0.159027 -0.948947
vn -0.137350 0.257312 -0.956517
vn -0.137350 0.257312 -0.956517
vn -0.272415 0.159027 -0.948947
vn -0.530447 0.353460 -0.770514
vn -0.230247 0.571910 -0.787341
vn -0.230247 0.571910 -0.787341
vn -0.530447 0.353460 -0.770514
vn -0.677808 0.468650 -0.566518
vn -0.279775 0.758292 -0.588828
vn -0.212221 0.758292 0.616405
vn -0.610254 0.468650 0.638715
vn -0.441019 0.353460 0.824966
vn -0.140820 0.571910 0.808139
vn -0.140820 0.571910 0.808139
vn -0.441019 0.353460 0.824966
vn -0.164664 0.159027 0.973446
vn -0.029599 0.257312 0.965875
vn -0.029599 0.257312 0.965875
vn -0.164664 0.159027 0.973446
vn -0.035450 0.066260 0.997172
vn 0.020826 0.107211 0.994018
vn 0.020826 0.107211 0.994018
vn -0.035450 0.066260 0.997172
vn 0.055963 0.000000 0.998433
vn -0.168157 0.000000 -0.985760
vn -0.146662 0.066260 -0.986965
vn -0.055963 0.000000 -0.998433
vn -0.146662 0.066260 -0.986965
vn -0.168157 0.000000 -0.985760
vn -0.324005 0.000000 -0.946055
vn -0.272415 0.159027 -0.948947
vn -0.272415 0.159027 -0.948947
vn -0.324005 0.000000 -0.946055
vn -0.645113 0.000000 -0.764087
vn -0.530447 0.353460 -0.770514
vn -0.530447 0.353460 -0.770514
vn -0.645113 0.000000 -0.764087
vn -0.829843 0.000000 -0.557996
vn -0.677808 0.468650 -0.566518
vn -0.610254 0.468650 0.638715
vn -0.762289 0.000000 0.647236
vn -0.555685 -0.000000 0.831393
vn -0.441019 0.353460 0.824966
vn -0.441019 0.353460 0.824966
vn -0.555685 -0.000000 0.831393
vn -0.216254 -0.000000 0.976337
vn -0.164664 0.159027 0.973446
vn -0.164664 0.159027 0.973446
vn -0.216254 -0.000000 0.976337
vn -0.056945 0.000000 0.998377
vn -0.035450 0.066260 0.997172
vn -0.035450 0.066260 0.997172
vn -0.056945 0.000000 0.998377
vn 0.055963 0.000000 0.998433
#end 300 vertex normals

#begin 80 faces
usemtl lens_black
f 10//1 3//2 1//3 
usemtl lens_black
f 3//4 10//5 11//6 4//7 
usemtl lens_black
f 4//8 11//9 12//10 5//11 
usemtl lens_black
f 5//12 12//13 13//14 6//15 
usemtl lens_black
f 6//16 13//17 14//18 7//19 
usemtl lens_black
f 7//20 14//21 15//22 8//23 
usemtl lens_black
f 8//24 15//25 16//26 9//27 
usemtl lens_black
f 9//28 16//29 2//30 
usemtl lens_black
f 17//31 10//32 1//33 
usemtl lens_black
f 10//34 17//35 18//36 11//37 
usemtl lens_black
f 11//38 18//39 19//40 12//41 
usemtl lens_black
f 12//42 19//43 20//44 13//45 
usemtl lens_black
f 13//46 20//47 21//48 14//49 
usemtl lens_black
f 14//50 21//51 22//52 15//53 
usemtl lens_black
f 15//54 22//55 23//56 16//57 
usemtl lens_black
f 16//58 23//59 2//60 
usemtl lens_black
f 24//61 17//62 1//63 
usemtl lens_black
f 17//64 24//65 25//66 18//67 
usemtl lens_black
f 18//68 25//69 26//70 19//71 
usemtl lens_black
f 19//72 26//73 27//74 20//75 
usemtl lens_black
f 20//76 27//77 28//78 21//79 
usemtl lens_black
f 21//80 28//81 29//82 22//83 
usemtl lens_black
f 22//84 29//85 30//86 23//87 
usemtl lens_black
f 23//88 30//89 2//90 
usemtl lens_black
f 31//91 24//92 1//93 
usemtl lens_black
f 24//94 31//95 32//96 25//97 
usemtl lens_black
f 25//98 32//99 33//100 26//101 
usemtl lens_black
f 26//102 33//103 34//104 27//105 
usemtl lens_black
f 27//106 34//107 35//108 28//109 
usemtl lens_black
f 28//110 35//111 36//112 29//113 
usemtl lens_black
f 29//114 36//115 37//116 30//117 
usemtl lens_black
f 30//118 37//119 2//120 
usemtl lens_black
f 38//121 31//122 1//123 
usemtl lens_black
f 31//124 38//125 39//126 32//127 
usemtl lens_black
f 32//128 39//129 40//130 33//131 
usemtl lens_black
f 33//132 40//133 41//134 34//135 
usemtl lens_black
f 34//136 41//137 42//138 35//139 
usemtl lens_black
f 35//140 42//141 43//142 36//143 
usemtl lens_black
f 36//144 43//145 44//146 37//147 
usemtl lens_black
f 37//148 44//149 2//150 
usemtl lens_black
f 45//151 38//152 1//153 
usemtl lens_black
f 38//154 45//155 46//156 39//157 
usemtl lens_black
f 39//158 46//159 47//160 40//161 
usemtl lens_black
f 40//162 47//163 48//164 41//165 
usemtl lens_black
f 41//166 48//167 49//168 42//169 
usemtl lens_black
f 42//170 49//171 50//172 43//173 
usemtl lens_black
f 43//174 50//175 51//176 44//177 
usemtl lens_black
f 44//178 51//179 2//180 
usemtl lens_black
f 52//181 45//182 1//183 
usemtl lens_black
f 45//184 52//185 53//186 46//187 
usemtl lens_black
f 46//188 53//189 54//190 47//191 
usemtl lens_black
f 47//192 54//193 55//194 48//195 
usemtl lens_black
f 48//196 55//197 56//198 49//199 
usemtl lens_black
f 49//200 56//201 57//202 50//203 
usemtl lens_black
f 50//204 57//205 58//206 51//207 
usemtl lens_black
f 51//208 58//209 2//210 
usemtl lens_black
f 59//211 52//212 1//213 
usemtl lens_black
f 52//214 59//215 60//216 53//217 
usemtl lens_black
f 53//218 60//219 61//220 54//221 
usemtl lens_black
f 54//222 61//223 62//224 55//225 
usemtl lens_black
f 55//226 62//227 63//228 56//229 
usemtl lens_black
f 56//230 63//231 64//232 57//233 
usemtl lens_black
f 57//234 64//235 65//236 58//237 
usemtl lens_black
f 58//238 65//239 2//240 
usemtl lens_black
f 66//241 59//242 1//243 
usemtl lens_black
f 59//244 66//245 67//246 60//247 
usemtl lens_black
f 60//248 67//249 68//250 61//251 
usemtl lens_black
f 61//252 68//253 69//254 62//255 
usemtl lens_black
f 62//256 69//257 70//258 63//259 
usemtl lens_black
f 63//260 70//261 71//262 64//263 
usemtl lens_black
f 64//264 71//265 72//266 65//267 
usemtl lens_black
f 65//268 72//269 2//270 
usemtl lens_black
f 3//271 66//272 1//273 
usemtl lens_black
f 66//274 3//275 4//276 67//277 
usemtl lens_black
f 67//278 4//279 5//280 68//281 
usemtl lens_black
f 68//282 5//283 6//284 69//285 
usemtl lens_black
f 69//286 6//287 7//288 70//289 
usemtl lens_black
f 70//290 7//291 8//292 71//293 
usemtl lens_black
f 71//294 8//295 9//296 72//297 
usemtl lens_black
f 72//298 9//299 2//300 
#end 80 faces
