# XSI Wavefront OBJ Export v3.0
# File Created: Wed Apr 04 18:29:59 2012
# XSI Version: 8.0.201.0
mtllib Anatomy_Larynx.mtl

o Larynx
# Hierarchy (from self to top father)
g Larynx

#begin 90 vertices
v -0.615597 151.753795 0.816531
v 1.091365 152.704841 0.472729
v -1.142469 156.887084 0.595775
v 1.478271 156.407108 0.349818
v -1.033811 152.828497 1.937538
v 1.091365 152.828497 1.937538
v -1.420716 154.867071 2.375432
v 1.478271 154.867071 2.375432
v -1.033811 152.704841 0.472729
v 0.673151 151.753795 0.816531
v -0.615597 152.537456 1.679092
v 0.673151 152.537456 1.679092
v -1.420716 156.407108 0.349818
v 1.200024 156.887084 0.595775
v -1.142469 155.112461 2.149923
v 1.200024 155.112461 2.149923
v 0.477292 152.828497 2.418192
v -0.042890 154.386179 2.980306
v -0.419737 152.828497 2.418192
v -0.299562 155.230597 2.980306
v 0.100444 154.386179 2.980306
v 0.357116 155.230597 2.980306
v 0.300765 152.537456 2.035689
v 0.176330 154.539484 2.737573
v -0.243211 152.537456 2.035689
v -0.236533 155.545599 2.737573
v -0.118775 154.539484 2.737573
v 0.294088 155.545599 2.737573
v 0.028777 154.372108 -0.160004
v 0.028777 152.828497 0.023924
v 0.028777 152.628775 0.488412
v 0.028777 154.462402 0.121379
v 1.392796 152.828497 1.174966
v -1.335242 152.828497 1.267150
v -1.831903 154.675102 1.410151
v 1.889457 154.675102 1.410151
v 0.855945 151.877451 1.245491
v -0.798390 151.877451 1.337675
v -1.474724 154.883733 1.468827
v 1.532278 154.883733 1.468827
v -1.018139 153.839160 0.647994
v 1.075693 153.839160 0.647994
v 0.901076 152.828497 2.298909
v 1.075693 153.227085 2.064218
v 0.557756 152.537456 1.965628
v -0.158104 154.016274 2.911346
v -0.494129 153.175774 2.516614
v 0.028777 153.606322 0.248483
v -1.315124 153.513701 1.382548
v 1.372678 153.513701 1.382548
v -0.695970 154.969496 0.005588
v -0.556846 155.174183 0.252154
v -0.502517 152.828497 0.159007
v -0.293410 151.877451 0.572602
v -0.494681 153.372575 0.373790
v 0.560071 152.828497 0.159007
v 0.350964 151.877451 0.572602
v 0.873791 155.077517 0.005588
v 0.614400 155.174183 0.252154
v 0.552235 153.372575 0.373790
v 1.430805 155.799500 0.376206
v 1.430805 154.495843 2.321711
v 0.028777 154.195267 -0.126131
v 1.828527 154.319368 1.392608
v -1.373251 155.799500 0.376206
v -1.373251 154.495843 2.321711
v 0.388313 154.918080 2.911346
v 0.215659 154.016274 2.911346
v -0.451025 154.918080 2.911346
v -1.770973 154.319368 1.392608
v -0.672237 154.577271 0.035718
v 0.729791 154.577271 0.035718
v -0.141725 152.828497 2.525102
v 0.199280 152.828497 2.525102
v 0.159504 153.224743 2.623524
v -0.101949 153.224743 2.623524
v -0.074619 152.537456 2.210287
v 0.132173 152.537456 2.210287
v -1.018139 153.227085 2.064218
v -0.965295 154.746144 2.737573
v 1.022850 154.746144 2.737573
v 0.813688 153.200044 2.391307
v 0.845785 155.463338 2.587971
v 1.039878 155.161556 2.798914
v -0.756134 153.200044 2.391307
v 0.551684 153.175774 2.516614
v -0.500202 152.537456 1.965628
v -0.843522 152.828497 2.298909
v -0.788231 155.463338 2.587971
v -0.982324 155.161556 2.798914
#end 90 vertices

#begin 360 normals
vn -0.741702 -0.182427 -0.645445
vn -0.729487 -0.096539 -0.677148
vn 0.779334 -0.129194 -0.613145
vn 0.733474 -0.176182 -0.656488
vn -0.765722 0.118704 0.632123
vn 0.772598 0.122573 0.622951
vn 0.772598 0.122573 0.622951
vn -0.765722 0.118704 0.632123
vn -0.741702 -0.182427 -0.645445
vn -0.769479 -0.408265 0.491143
vn -0.784113 -0.171925 0.596329
vn -0.729487 -0.096539 -0.677148
vn 0.733474 -0.176182 -0.656488
vn 0.779334 -0.129194 -0.613145
vn 0.784113 -0.171925 0.596329
vn 0.780256 -0.419653 0.463781
vn -0.777543 0.236942 -0.582482
vn -0.765722 0.118704 0.632123
vn -0.765722 0.118704 0.632123
vn -0.777543 0.236942 -0.582482
vn -0.769479 -0.408265 0.491143
vn 0.780256 -0.419653 0.463781
vn 0.784113 -0.171925 0.596329
vn -0.784113 -0.171925 0.596329
vn -0.741702 -0.182427 -0.645445
vn 0.733474 -0.176182 -0.656488
vn 0.659733 -0.495394 -0.565100
vn -0.669387 -0.497579 -0.551667
vn 0.733474 -0.176182 -0.656488
vn 0.780256 -0.419653 0.463781
vn 0.560998 -0.723855 0.401640
vn 0.659733 -0.495394 -0.565100
vn 0.780256 -0.419653 0.463781
vn -0.769479 -0.408265 0.491143
vn -0.542426 -0.716720 0.438277
vn 0.560998 -0.723855 0.401640
vn -0.769479 -0.408265 0.491143
vn -0.741702 -0.182427 -0.645445
vn -0.669387 -0.497579 -0.551667
vn -0.542426 -0.716720 0.438277
vn -0.722516 0.425741 0.544716
vn -0.639935 0.763711 0.085016
vn -0.639935 0.763711 0.085016
vn -0.722516 0.425741 0.544716
vn -0.639935 0.763711 0.085016
vn 0.639935 0.763711 0.085016
vn 0.639935 0.763711 0.085016
vn -0.639935 0.763711 0.085016
vn 0.639935 0.763711 0.085016
vn 0.722516 0.425741 0.544716
vn 0.722516 0.425741 0.544716
vn 0.639935 0.763711 0.085016
vn -0.401811 0.348612 -0.846769
vn 0.410518 0.354196 -0.840250
vn 0.410518 0.354196 -0.840250
vn -0.401811 0.348612 -0.846769
vn 0.767251 0.231781 -0.597999
vn -0.777543 0.236942 -0.582482
vn -0.777543 0.236942 -0.582482
vn 0.767251 0.231781 -0.597999
vn 0.772598 0.122573 0.622951
vn 0.767251 0.231781 -0.597999
vn 0.767251 0.231781 -0.597999
vn 0.772598 0.122573 0.622951
vn 0.292561 -0.556092 0.777926
vn 0.292561 -0.556092 0.777926
vn 0.204454 -0.143942 0.968235
vn 0.226223 -0.214634 0.950134
vn -0.292561 -0.556092 0.777926
vn -0.292561 -0.556092 0.777926
vn -0.288723 0.154699 0.944832
vn -0.288723 0.154699 0.944832
vn -0.180308 -0.216908 0.959396
vn -0.138666 -0.136270 0.980919
vn -0.967008 0.195661 0.163134
vn 0.325090 0.135775 0.935885
vn -0.568035 0.194229 -0.799757
vn 0.245720 -0.801491 0.545192
vn -0.180195 -0.274566 0.944533
vn -0.180308 -0.216908 0.959396
vn 0.568035 0.194229 -0.799757
vn -0.245720 -0.801491 0.545192
vn 0.814879 0.224371 -0.534444
vn -0.271088 0.641114 0.717972
vn 0.226223 -0.214634 0.950134
vn 0.192980 -0.268681 0.943700
vn -0.814879 0.224371 -0.534444
vn -0.814879 0.224371 -0.534444
vn 0.292561 -0.556092 0.777926
vn 0.325090 0.135775 0.935885
vn -0.466890 0.223281 -0.855663
vn -0.772496 0.254471 -0.581803
vn -0.292561 -0.556092 0.777926
vn -0.288723 0.154699 0.944832
vn 0.292561 -0.556092 0.777926
vn 0.245720 -0.801491 0.545192
vn 0.772496 0.254471 -0.581803
vn 0.466890 0.223281 -0.855663
vn -0.292561 -0.556092 0.777926
vn -0.245720 -0.801491 0.545192
vn 0.967008 0.195661 0.163134
vn 0.814879 0.224371 -0.534444
vn 0.000000 0.845489 0.533993
vn 0.000000 0.845489 0.533993
vn 0.325090 0.135775 0.935885
vn 0.271088 0.641114 0.717972
vn -0.814879 0.224371 -0.534444
vn -0.568035 0.194229 -0.799757
vn 0.000000 0.845489 0.533993
vn 0.000000 0.845489 0.533993
vn 0.814879 0.224371 -0.534444
vn 0.568035 0.194229 -0.799757
vn 0.004271 -0.143311 -0.989668
vn -0.551890 0.662925 -0.505913
vn 0.000000 0.317017 -0.948420
vn 0.000000 -0.572396 -0.819977
vn 0.000000 -0.572396 -0.819977
vn 0.000000 0.144309 0.989533
vn -0.551890 0.662925 -0.505913
vn 0.000000 0.144309 0.989533
vn 0.004271 -0.143311 -0.989668
vn 0.000000 0.317017 -0.948420
vn 0.000000 0.144309 0.989533
vn 0.000000 0.144309 0.989533
vn 0.000000 -0.572396 -0.819977
vn 0.000000 -0.572396 -0.819977
vn 0.545438 0.662240 -0.513747
vn 0.545438 0.662240 -0.513747
vn 0.951895 -0.294186 0.085731
vn 0.951895 -0.294186 0.085731
vn -0.949196 -0.287944 0.126943
vn -0.949196 -0.287944 0.126943
vn -0.986955 -0.154820 -0.044158
vn -0.684475 0.657963 0.313973
vn 0.986955 -0.154820 -0.044158
vn 0.684475 0.657963 0.313973
vn -0.793781 0.240596 -0.558592
vn 0.803651 -0.571368 0.166385
vn 0.858430 0.132350 0.495562
vn -0.794969 -0.564285 0.222724
vn -0.684475 0.657963 0.313973
vn 0.858430 0.132350 0.495562
vn 0.684475 0.657963 0.313973
vn -0.793781 0.240596 -0.558592
vn -0.949196 -0.287944 0.126943
vn -0.986955 -0.154820 -0.044158
vn 0.986955 -0.154820 -0.044158
vn 0.951895 -0.294186 0.085731
vn -0.847482 0.125113 0.515869
vn -0.847482 0.125113 0.515869
vn 0.951895 -0.294186 0.085731
vn 0.803651 -0.571368 0.166385
vn -0.949196 -0.287944 0.126943
vn -0.794969 -0.564285 0.222724
vn -0.684475 0.657963 0.313973
vn -0.684475 0.657963 0.313973
vn 0.684475 0.657963 0.313973
vn 0.684475 0.657963 0.313973
vn 0.773774 0.230451 -0.590056
vn 0.773774 0.230451 -0.590056
vn -0.743043 -0.063668 -0.666209
vn -0.743043 -0.063668 -0.666209
vn 0.740157 -0.057976 -0.669930
vn 0.740157 -0.057976 -0.669930
vn -0.840388 -0.195506 0.505496
vn -0.840388 -0.195506 0.505496
vn 0.842842 -0.201962 0.498827
vn 0.842842 -0.201962 0.498827
vn 0.342715 -0.230602 0.910697
vn 0.342715 -0.230602 0.910697
vn 0.163094 -0.536064 0.828273
vn 0.170568 -0.769109 0.615936
vn -0.339175 -0.239159 0.909815
vn -0.339175 -0.239159 0.909815
vn 0.000000 -0.041961 -0.999119
vn 0.000000 -0.041961 -0.999119
vn -0.981680 -0.181481 -0.058036
vn -0.981680 -0.181481 -0.058036
vn 0.980735 -0.182352 -0.070044
vn 0.980735 -0.182352 -0.070044
vn -0.743043 -0.063668 -0.666209
vn 0.000000 -0.041961 -0.999119
vn -0.981680 -0.181481 -0.058036
vn -0.743043 -0.063668 -0.666209
vn 0.740157 -0.057976 -0.669930
vn 0.980735 -0.182352 -0.070044
vn -0.339175 -0.239159 0.909815
vn -0.561636 -0.205044 0.801575
vn 0.342715 -0.230602 0.910697
vn 0.192980 -0.268681 0.943700
vn 0.226223 -0.214634 0.950134
vn -0.170568 -0.769109 0.615936
vn -0.163094 -0.536064 0.828273
vn -0.482818 -0.203062 0.851852
vn 0.740157 -0.057976 -0.669930
vn 0.000000 -0.041961 -0.999119
vn -0.840388 -0.195506 0.505496
vn -0.981680 -0.181481 -0.058036
vn 0.842842 -0.201962 0.498827
vn 0.980735 -0.182352 -0.070044
vn -0.432879 -0.103745 -0.895462
vn 0.491671 0.522777 -0.696393
vn 0.491671 0.522777 -0.696393
vn 0.460154 0.129447 0.878351
vn -0.235398 -0.137992 -0.962053
vn -0.235398 -0.137992 -0.962053
vn -0.059814 -0.531146 -0.845167
vn 0.460154 0.129447 0.878351
vn -0.440974 -0.029881 -0.897022
vn -0.440974 -0.029881 -0.897022
vn -0.440974 -0.029881 -0.897022
vn -0.235398 -0.137992 -0.962053
vn -0.235398 -0.137992 -0.962053
vn -0.059814 -0.531146 -0.845167
vn 0.460154 0.129447 0.878351
vn 0.460154 0.129447 0.878351
vn 0.491671 0.522777 -0.696393
vn 0.491671 0.522777 -0.696393
vn -0.432879 -0.103745 -0.895462
vn -0.440974 -0.029881 -0.897022
vn 0.235398 -0.137992 -0.962053
vn 0.235398 -0.137992 -0.962053
vn 0.059814 -0.531146 -0.845167
vn -0.460154 0.129447 0.878351
vn 0.504376 -0.157671 -0.848967
vn -0.491670 0.521487 -0.697360
vn -0.491670 0.521487 -0.697360
vn -0.460154 0.129447 0.878351
vn 0.440974 -0.029881 -0.897022
vn 0.440974 -0.029881 -0.897022
vn -0.460154 0.129447 0.878351
vn -0.460154 0.129447 0.878351
vn -0.491670 0.521487 -0.697360
vn -0.491670 0.521487 -0.697360
vn 0.440974 -0.029881 -0.897022
vn 0.504376 -0.157671 -0.848967
vn 0.059814 -0.531146 -0.845167
vn 0.235398 -0.137992 -0.962053
vn 0.235398 -0.137992 -0.962053
vn 0.440974 -0.029881 -0.897022
vn 0.753404 -0.197102 -0.627322
vn 0.753404 -0.197102 -0.627322
vn 0.785166 -0.255980 0.563905
vn 0.785166 -0.255980 0.563905
vn 0.002137 -0.270668 -0.962670
vn 0.002137 -0.270668 -0.962670
vn 0.959711 -0.265595 -0.091731
vn 0.959711 -0.265595 -0.091731
vn -0.729208 -0.181609 -0.659752
vn -0.729208 -0.181609 -0.659752
vn -0.785166 -0.255980 0.563905
vn -0.785166 -0.255980 0.563905
vn 0.348088 -0.173691 0.921231
vn 0.348088 -0.173691 0.921231
vn -0.163094 -0.536064 0.828273
vn -0.180195 -0.274566 0.944533
vn -0.320946 -0.168466 0.931994
vn -0.320946 -0.168466 0.931994
vn -0.959711 -0.265594 -0.091731
vn -0.959711 -0.265594 -0.091731
vn -0.461937 -0.213796 -0.860759
vn -0.461937 -0.213796 -0.860759
vn 0.496463 -0.240926 -0.833954
vn 0.496463 -0.240926 -0.833954
vn 0.753404 -0.197102 -0.627322
vn 0.496463 -0.240926 -0.833954
vn 0.785166 -0.255980 0.563905
vn 0.959711 -0.265595 -0.091731
vn -0.461937 -0.213796 -0.860759
vn -0.729208 -0.181609 -0.659752
vn -0.729208 -0.181609 -0.659752
vn -0.959711 -0.265594 -0.091731
vn 0.959711 -0.265595 -0.091731
vn 0.753404 -0.197102 -0.627322
vn -0.320946 -0.168466 0.931994
vn -0.785166 -0.255980 0.563905
vn 0.348088 -0.173691 0.921231
vn 0.348088 -0.173691 0.921231
vn 0.192980 -0.268681 0.943700
vn 0.466984 -0.212647 0.858316
vn -0.482818 -0.203062 0.851852
vn 0.163094 -0.536064 0.828273
vn -0.959711 -0.265594 -0.091731
vn -0.785166 -0.255980 0.563905
vn 0.002137 -0.270668 -0.962670
vn -0.461937 -0.213796 -0.860759
vn 0.002137 -0.270668 -0.962670
vn 0.496463 -0.240926 -0.833954
vn -0.163094 -0.536064 0.828273
vn 0.967008 0.195661 0.163134
vn 0.772496 0.254471 -0.581803
vn 0.163094 -0.536064 0.828273
vn 0.192980 -0.268681 0.943700
vn -0.180308 -0.216908 0.959396
vn -0.138666 -0.136270 0.980919
vn -0.561636 -0.205044 0.801575
vn 0.772496 0.254471 -0.581803
vn -0.170568 -0.769109 0.615936
vn -0.466890 0.223281 -0.855663
vn 0.466890 0.223281 -0.855663
vn 0.226223 -0.214634 0.950134
vn 0.553828 -0.203305 0.807429
vn 0.342715 -0.230602 0.910697
vn -0.840388 -0.195506 0.505496
vn 0.163094 -0.536064 0.828273
vn 0.170568 -0.769109 0.615936
vn -0.772496 0.254471 -0.581803
vn -0.772496 0.254471 -0.581803
vn -0.967008 0.195661 0.163134
vn 0.204454 -0.143942 0.968235
vn -0.163094 -0.536064 0.828273
vn -0.180195 -0.274566 0.944533
vn -0.320946 -0.168466 0.931994
vn -0.180308 -0.216908 0.959396
vn -0.180195 -0.274566 0.944533
vn -0.339175 -0.239159 0.909815
vn 0.553828 -0.203305 0.807429
vn 0.466984 -0.212647 0.858316
vn 0.785166 -0.255980 0.563905
vn 0.842842 -0.201962 0.498827
vn 0.518446 -0.561573 0.644864
vn 0.518446 -0.561573 0.644864
vn 0.466984 -0.212647 0.858316
vn 0.557453 0.306807 0.771437
vn -0.523947 0.239778 -0.817304
vn -0.523947 0.239778 -0.817304
vn 0.557453 0.306807 0.771437
vn 0.523693 0.722720 0.451022
vn 0.518446 -0.561573 0.644864
vn 0.553828 -0.203305 0.807429
vn 0.323572 -0.857572 0.399839
vn 0.518446 -0.561573 0.644864
vn -0.523947 0.239778 -0.817304
vn 0.323572 -0.857572 0.399839
vn 0.557453 0.306807 0.771437
vn 0.557453 0.306807 0.771437
vn -0.482818 -0.203062 0.851852
vn -0.561807 0.317141 0.764064
vn -0.518446 -0.561573 0.644864
vn -0.323572 -0.857572 0.399839
vn 0.523947 0.239778 -0.817304
vn 0.523947 0.239778 -0.817304
vn -0.523693 0.722720 0.451022
vn -0.561807 0.317141 0.764064
vn -0.561636 -0.205044 0.801575
vn -0.518446 -0.561573 0.644864
vn -0.523947 0.239778 -0.817304
vn 0.523693 0.722720 0.451022
vn 0.553828 -0.203305 0.807429
vn 0.466984 -0.212647 0.858316
vn -0.482818 -0.203062 0.851852
vn -0.561636 -0.205044 0.801575
vn -0.323572 -0.857572 0.399839
vn 0.523947 0.239778 -0.817304
vn -0.518446 -0.561573 0.644864
vn -0.518446 -0.561573 0.644864
vn -0.523693 0.722720 0.451022
vn 0.523947 0.239778 -0.817304
vn -0.561807 0.317141 0.764064
vn -0.561807 0.317141 0.764064
#end 360 vertex normals

#begin 90 faces
usemtl yellow
f 9//1 41//161 55//209 53//205 
usemtl yellow
f 14//8 59//228 57//224 10//5 
usemtl yellow
f 9//9 34//132 49//177 41//162 
usemtl yellow
f 2//13 42//164 50//179 33//130 
usemtl yellow
f 16//20 40//144 37//137 12//17 
usemtl yellow
f 5//21 88//355 85//352 79//166 
usemtl yellow
f 9//25 53//206 54//207 1//28 
usemtl yellow
f 2//29 33//129 37//138 10//32 
usemtl yellow
f 6//33 43//321 45//334 12//36 
usemtl yellow
f 5//37 34//131 38//140 11//40 
usemtl yellow
f 13//41 35//134 39//141 3//44 
usemtl yellow
f 7//45 90//360 89//357 15//48 
usemtl yellow
f 8//49 36//136 40//143 16//52 
usemtl yellow
f 4//53 58//226 59//227 14//56 
usemtl yellow
f 15//60 89//358 87//354 11//57 
usemtl yellow
f 3//64 39//142 38//139 1//61 
usemtl yellow
f 6//22 44//168 82//349 43//322 
usemtl yellow
f 17//66 86//169 75//293 74//292 
usemtl yellow
f 18//74 46//73 68//68 21//67 
usemtl yellow
f 75//86 68//85 46//80 76//79 
usemtl yellow
f 19//69 25//82 77//298 73//289 
usemtl yellow
f 5//34 11//35 87//353 88//356 
usemtl yellow
f 77//98 27//97 24//92 78//91 
usemtl yellow
f 22//75 28//88 24//308 21//309 
usemtl yellow
f 8//46 16//47 83//348 84//335 
usemtl yellow
f 16//59 12//58 45//333 83//347 
usemtl yellow
f 28//87 23//77 78//299 24//307 
usemtl yellow
f 21//110 24//109 27//104 18//103 
usemtl yellow
f 4//3 61//241 72//263 58//225 
usemtl yellow
f 3//7 1//6 54//208 52//204 
usemtl yellow
f 2//26 10//27 57//223 56//222 
usemtl yellow
f 13//54 3//55 52//203 51//202 
usemtl yellow
f 5//10 79//165 49//178 34//145 
usemtl yellow
f 8//15 62//243 64//248 36//147 
usemtl yellow
f 14//19 10//18 37//150 40//149 
usemtl yellow
f 6//30 12//31 37//152 33//151 
usemtl yellow
f 9//38 1//39 38//154 34//153 
usemtl yellow
f 7//42 15//43 39//156 35//155 
usemtl yellow
f 4//50 14//51 40//158 36//157 
usemtl yellow
f 15//63 11//62 38//160 39//159 
usemtl yellow
f 13//2 51//201 71//261 65//249 
usemtl yellow
f 35//133 13//12 65//250 70//259 
usemtl yellow
f 4//14 36//135 64//247 61//242 
usemtl yellow
f 20//72 90//359 80//351 69//257 
usemtl yellow
f 8//23 84//336 81//350 62//244 
usemtl yellow
f 22//76 21//310 68//301 67//253 
usemtl yellow
f 73//193 77//192 78//172 74//171 
usemtl yellow
f 2//4 56//221 60//230 42//195 
usemtl yellow
f 7//11 35//146 70//260 66//251 
usemtl yellow
f 6//16 33//148 50//200 44//199 
usemtl yellow
f 48//175 30//115 53//212 55//211 
usemtl yellow
f 30//116 31//117 54//214 53//213 
usemtl yellow
f 31//124 32//123 52//216 54//215 
usemtl yellow
f 32//128 29//127 51//218 52//217 
usemtl yellow
f 29//113 63//245 71//262 51//219 
usemtl yellow
f 32//120 31//118 57//232 59//231 
usemtl yellow
f 29//114 32//119 59//234 58//233 
usemtl yellow
f 48//176 63//246 72//264 60//235 
usemtl yellow
f 31//126 30//125 56//238 57//237 
usemtl yellow
f 30//122 48//196 60//240 56//239 
usemtl yellow
f 42//163 60//229 72//266 61//265 
usemtl yellow
f 44//167 50//180 64//268 62//267 
usemtl yellow
f 55//210 41//181 65//270 71//269 
usemtl yellow
f 41//184 49//183 70//272 65//271 
usemtl yellow
f 50//186 42//185 61//274 64//273 
usemtl yellow
f 69//275 80//194 85//188 47//187 
usemtl yellow
f 67//277 68//191 75//190 86//189 
usemtl yellow
f 74//282 75//279 76//256 73//255 
usemtl yellow
f 79//304 85//296 80//281 66//276 
usemtl yellow
f 49//198 79//197 66//284 70//283 
usemtl yellow
f 48//182 55//220 71//286 63//285 
usemtl yellow
f 29//121 58//236 72//288 63//287 
usemtl yellow
f 26//102 20//101 18//290 27//291 
usemtl yellow
f 47//174 19//93 73//311 76//312 
usemtl yellow
f 20//94 69//258 46//294 18//295 
usemtl yellow
f 23//96 17//95 74//305 78//306 
usemtl yellow
f 86//303 82//302 81//280 67//278 
usemtl yellow
f 25//112 26//111 27//297 77//300 
usemtl yellow
f 47//316 76//315 46//314 69//313 
usemtl yellow
f 44//320 62//319 81//318 82//317 
usemtl yellow
f 17//65 23//78 45//331 43//332 
usemtl yellow
f 86//170 17//89 43//329 82//330 
usemtl yellow
f 22//90 67//254 81//323 84//324 
usemtl yellow
f 23//108 28//107 83//325 45//326 
usemtl yellow
f 28//106 22//105 84//327 83//328 
usemtl yellow
f 7//24 66//252 80//337 90//338 
usemtl yellow
f 25//100 19//99 88//339 87//340 
usemtl yellow
f 26//83 25//81 87//341 89//342 
usemtl yellow
f 20//71 26//84 89//343 90//344 
usemtl yellow
f 19//70 47//173 85//345 88//346 
#end 90 faces
