# XSI Wavefront OBJ Export v3.0
# File Created: Wed Apr 04 18:29:59 2012
# XSI Version: 8.0.201.0
mtllib Anatomy_Diaphragm.mtl

o Diaphragm
# Hierarchy (from self to top father)
g Diaphragm

#begin 80 vertices
v -9.779551 118.869200 -3.792669
v -7.912642 119.381745 -3.266151
v 7.912642 119.381745 -3.266151
v 9.779551 118.869200 -3.792669
v -11.007759 120.359185 -3.792669
v -7.912642 121.297449 -4.371684
v 7.912642 121.297449 -4.371684
v 11.007759 120.359185 -3.792669
v -10.122673 118.578627 7.011695
v -9.688247 119.610458 7.991965
v 9.688247 119.610458 7.991965
v 10.122673 118.578627 7.011695
v -11.745170 117.190250 7.077201
v -9.688247 121.526161 9.283484
v 9.688247 121.526161 9.283484
v 11.745170 117.190250 7.077201
v -12.473356 115.690277 -1.198171
v -13.070803 124.287390 -0.951502
v 13.070803 124.287390 -0.951502
v 12.473356 115.690277 -1.198171
v -12.473356 115.385701 4.965891
v -13.070803 124.287390 4.741427
v 13.070803 124.287390 4.741427
v 12.473356 115.385701 4.965891
v -13.805677 117.605981 -1.198171
v -13.070803 122.260849 -0.951502
v 13.070803 122.260849 -0.951502
v 13.805677 117.605981 -1.198171
v -13.805677 117.301405 4.965891
v -13.070803 122.260849 4.741427
v 13.070803 122.260849 4.741427
v 13.805677 117.301405 4.965891
v -1.629652 120.859798 -5.630323
v -4.624339 118.944095 -4.277363
v 1.629652 120.859798 -5.630323
v 4.624339 118.944095 -4.277363
v 6.534459 125.423506 -1.605132
v -6.534459 125.423506 -1.605132
v -10.431390 125.160274 -2.905694
v 10.644582 125.160274 -2.905694
v 6.519673 126.238563 4.022317
v -6.519673 126.238563 4.022317
v -10.431390 125.024576 6.673413
v 10.644582 125.024576 6.673413
v 5.675190 123.269997 9.433958
v -5.675190 123.269997 9.433958
v -5.675190 125.185701 9.232195
v 5.675190 125.185701 9.232195
v -0.701617 118.078106 -3.219637
v 0.034297 123.415871 -5.351558
v 1.446802 118.177024 -3.219637
v -0.300607 123.497232 -4.357949
v 0.709871 125.926724 0.041489
v -0.709871 125.926724 0.041489
v -5.946485 127.461880 -2.944257
v 6.372868 127.461880 -2.944257
v 0.946116 127.828233 3.193264
v -0.946116 127.828233 3.193264
v -5.557167 127.461880 4.163056
v 5.983550 127.461880 4.163056
v 1.713976 123.979134 9.081267
v -1.714709 123.979134 9.081144
v -1.714709 125.894838 8.879381
v 1.713976 125.894838 8.879504
v -0.772494 115.107682 -4.009143
v -1.807446 115.066629 -4.009143
v -0.034297 123.415871 -5.351558
v -1.446802 118.177024 -3.219637
v 0.772494 115.107682 -4.009143
v 1.807446 115.066629 -4.009143
v 0.701617 118.078106 -3.219637
v 0.300607 123.497232 -4.357949
v -1.505842 122.209322 -3.545224
v -1.179446 122.767232 -4.139956
v -2.613804 117.032052 -4.396844
v -1.106975 118.019318 -4.904248
v 1.179446 122.767232 -4.139956
v 1.505842 122.209322 -3.545224
v 1.106975 118.019318 -4.904248
v 2.613804 117.032052 -4.396844
#end 80 vertices

#begin 312 normals
vn -0.188501 -0.317320 -0.929395
vn -0.087909 -0.336780 -0.937471
vn -0.313994 -0.047399 -0.948241
vn -0.363189 -0.087677 -0.927581
vn 0.502032 -0.142363 0.853052
vn 0.502032 -0.142363 0.853052
vn 0.346956 -0.224371 0.910648
vn 0.346956 -0.224371 0.910648
vn -0.188501 -0.317320 -0.929395
vn -0.709704 -0.507474 -0.488662
vn -0.872298 -0.113253 -0.475679
vn -0.363189 -0.087677 -0.927581
vn 0.034838 0.104678 0.993896
vn 0.034838 0.104678 0.993896
vn 0.245316 -0.450272 0.858531
vn -0.278525 -0.119210 0.953002
vn -0.034852 0.104678 0.993895
vn -0.034852 0.104678 0.993895
vn 0.276747 -0.126401 0.952593
vn -0.245316 -0.450272 0.858531
vn 0.087909 -0.336780 -0.937471
vn 0.188501 -0.317320 -0.929395
vn 0.363189 -0.087677 -0.927581
vn 0.314583 -0.053336 -0.947730
vn -0.346956 -0.224371 0.910648
vn -0.502032 -0.142363 0.853052
vn -0.502032 -0.142363 0.853052
vn -0.346956 -0.224371 0.910648
vn 0.188501 -0.317320 -0.929395
vn 0.363189 -0.087677 -0.927581
vn 0.872298 -0.113253 -0.475679
vn 0.709704 -0.507474 -0.488662
vn -0.313994 -0.047399 -0.948241
vn -0.791018 0.388410 -0.472682
vn -0.872298 -0.113253 -0.475679
vn -0.363189 -0.087677 -0.927581
vn 0.276747 -0.126401 0.952593
vn 0.094874 0.925860 0.365763
vn 0.169411 0.966409 0.193273
vn 0.856577 0.351647 0.377652
vn 0.363189 -0.087677 -0.927581
vn 0.872298 -0.113253 -0.475679
vn 0.798914 0.372267 -0.472391
vn 0.314583 -0.053336 -0.947730
vn 0.997675 0.068123 0.001750
vn 0.916511 0.073201 -0.393254
vn 0.756193 -0.474573 -0.450504
vn 0.997675 0.068123 0.001750
vn -0.709704 -0.507474 -0.488662
vn -0.820647 -0.570739 -0.028201
vn -0.965479 -0.122241 0.230017
vn -0.872298 -0.113253 -0.475679
vn -0.165170 0.967928 0.189298
vn -0.095757 0.928437 0.358936
vn -0.278525 -0.119210 0.953002
vn -0.851063 0.367928 0.374595
vn -0.997675 0.068123 0.001750
vn -0.756193 -0.474573 -0.450504
vn -0.916511 0.073201 -0.393254
vn -0.997675 0.068123 0.001750
vn 0.709704 -0.507474 -0.488662
vn 0.872298 -0.113253 -0.475679
vn 0.965479 -0.122241 0.230017
vn 0.820647 -0.570739 -0.028201
vn -0.791018 0.388410 -0.472682
vn -0.851063 0.367928 0.374595
vn -0.965479 -0.122241 0.230017
vn -0.872298 -0.113253 -0.475679
vn 0.567187 -0.287631 -0.771730
vn 0.070595 -0.844380 -0.531073
vn 0.083541 -0.994007 -0.070503
vn 0.756193 -0.474573 -0.450504
vn 0.872298 -0.113253 -0.475679
vn 0.965479 -0.122241 0.230017
vn 0.856577 0.351647 0.377652
vn 0.798914 0.372267 -0.472391
vn 0.916511 0.073201 -0.393254
vn 0.686284 0.066372 -0.724299
vn 0.567187 -0.287631 -0.771730
vn 0.756193 -0.474573 -0.450504
vn -0.116329 -0.734838 0.668192
vn 0.142577 -0.690449 0.709192
vn 0.142577 -0.690449 0.709192
vn -0.116329 -0.734838 0.668192
vn -0.083532 -0.994008 -0.070503
vn -0.070579 -0.844380 -0.531075
vn -0.567187 -0.287631 -0.771730
vn -0.756193 -0.474573 -0.450504
vn -0.756193 -0.474573 -0.450504
vn -0.567187 -0.287631 -0.771730
vn -0.686284 0.066372 -0.724299
vn -0.916511 0.073201 -0.393254
vn 0.116329 -0.734838 0.668192
vn 0.116329 -0.734838 0.668192
vn -0.142577 -0.690449 0.709192
vn -0.142577 -0.690449 0.709192
vn -0.851063 0.367928 0.374595
vn -0.278525 -0.119210 0.953002
vn -0.764708 0.093752 0.637520
vn -0.965479 -0.122241 0.230017
vn 0.856577 0.351647 0.377652
vn 0.169411 0.966409 0.193273
vn 0.196111 0.813073 -0.548135
vn 0.798914 0.372267 -0.472391
vn 0.965479 -0.122241 0.230017
vn 0.764708 0.093752 0.637520
vn 0.276747 -0.126401 0.952593
vn 0.856577 0.351647 0.377652
vn 0.142577 -0.690449 0.709192
vn 0.142577 -0.690449 0.709192
vn -0.278525 -0.119210 0.953002
vn 0.245316 -0.450272 0.858531
vn -0.190815 0.815998 -0.545652
vn -0.165170 0.967928 0.189298
vn -0.851063 0.367928 0.374595
vn -0.791018 0.388410 -0.472682
vn -0.245316 -0.450272 0.858531
vn 0.276747 -0.126401 0.952593
vn -0.142577 -0.690449 0.709192
vn -0.142577 -0.690449 0.709192
vn 0.756193 -0.474573 -0.450504
vn 0.083541 -0.994007 -0.070503
vn 0.082688 -0.839138 0.537596
vn 0.235938 -0.969281 0.069479
vn -0.082688 -0.839138 0.537596
vn -0.083532 -0.994008 -0.070503
vn -0.756193 -0.474573 -0.450504
vn -0.235938 -0.969281 0.069479
vn 0.798914 0.372267 -0.472391
vn 0.196111 0.813073 -0.548135
vn 0.089236 0.390558 -0.916243
vn 0.314583 -0.053336 -0.947730
vn -0.089880 0.395043 -0.914255
vn -0.190815 0.815998 -0.545652
vn -0.791018 0.388410 -0.472682
vn -0.313994 -0.047399 -0.948241
vn 0.346956 -0.224371 0.910648
vn 0.082688 -0.839138 0.537596
vn 0.120304 -0.798197 0.590261
vn 0.346956 -0.224371 0.910648
vn -0.120304 -0.798197 0.590261
vn -0.082688 -0.839138 0.537596
vn -0.346956 -0.224371 0.910648
vn -0.346956 -0.224371 0.910648
vn 0.314583 -0.053336 -0.947730
vn -0.220281 -0.050952 0.974105
vn 0.108832 -0.043972 0.993087
vn 0.087909 -0.336780 -0.937471
vn -0.087909 -0.336780 -0.937471
vn -0.108832 -0.043972 0.993087
vn 0.220281 -0.050952 0.974105
vn -0.313994 -0.047399 -0.948241
vn -0.385210 -0.145050 0.911358
vn -0.008152 -0.250785 0.968008
vn 0.008152 -0.250785 0.968008
vn 0.385210 -0.145050 0.911358
vn -0.003068 -0.277009 0.960862
vn -0.206435 -0.783048 0.586703
vn 0.206435 -0.783048 0.586703
vn 0.003068 -0.277009 0.960862
vn -0.264906 -0.062639 -0.962238
vn -0.272889 0.192652 -0.942559
vn 0.273990 0.177065 -0.945292
vn 0.264927 -0.070626 -0.961679
vn -0.206435 -0.783048 0.586703
vn -0.250248 -0.938171 -0.239189
vn 0.250249 -0.938171 -0.239188
vn 0.206435 -0.783048 0.586703
vn -0.599122 0.800567 0.012079
vn -0.535224 0.786462 0.308241
vn 0.550161 0.772193 0.317868
vn 0.623117 0.782034 0.012127
vn -0.250248 -0.938171 -0.239189
vn -0.259191 -0.738157 -0.622852
vn 0.259194 -0.738158 -0.622850
vn 0.250249 -0.938171 -0.239188
vn -0.535224 0.786462 0.308241
vn -0.188332 0.340853 0.921059
vn 0.186645 0.330206 0.925272
vn 0.550161 0.772193 0.317868
vn -0.077482 -0.085628 0.993310
vn 0.186645 0.330206 0.925272
vn -0.188332 0.340853 0.921059
vn 0.077504 -0.085628 0.993308
vn 0.636262 -0.771245 0.018783
vn -0.089880 0.395043 -0.914255
vn -0.264906 -0.062639 -0.962238
vn -0.264906 -0.062639 -0.962238
vn -0.239705 -0.312616 -0.919137
vn 0.003068 -0.277009 0.960862
vn 0.120304 -0.798197 0.590261
vn 0.120304 -0.798197 0.590261
vn 0.264927 -0.070626 -0.961679
vn 0.264927 -0.070626 -0.961679
vn 0.082688 -0.839138 0.537596
vn 0.082688 -0.839138 0.537596
vn -0.190815 0.815998 -0.545652
vn -0.190815 0.815998 -0.545652
vn 0.239705 -0.312616 -0.919137
vn -0.003068 -0.277009 0.960862
vn -0.206435 -0.783048 0.586703
vn -0.206435 -0.783048 0.586703
vn 0.083541 -0.994007 -0.070503
vn 0.083541 -0.994007 -0.070503
vn -0.165170 0.967928 0.189298
vn -0.165170 0.967928 0.189298
vn 0.206435 -0.783048 0.586703
vn 0.206435 -0.783048 0.586703
vn -0.272889 0.192652 -0.942559
vn -0.599122 0.800567 0.012079
vn 0.070595 -0.844380 -0.531073
vn 0.034838 0.104678 0.993896
vn -0.095757 0.928437 0.358936
vn 0.034838 0.104678 0.993896
vn 0.273990 0.177065 -0.945292
vn 0.623117 0.782034 0.012127
vn -0.250248 -0.938171 -0.239189
vn -0.250248 -0.938171 -0.239189
vn -0.120304 -0.798197 0.590261
vn -0.636262 -0.771245 0.018783
vn -0.082688 -0.839138 0.537596
vn -0.120304 -0.798197 0.590261
vn 0.250249 -0.938171 -0.239188
vn 0.250249 -0.938171 -0.239188
vn -0.535224 0.786462 0.308241
vn -0.535224 0.786462 0.308241
vn 0.089236 0.390558 -0.916243
vn 0.196111 0.813073 -0.548135
vn -0.083532 -0.994008 -0.070503
vn -0.082688 -0.839138 0.537596
vn 0.550161 0.772193 0.317868
vn 0.550161 0.772193 0.317868
vn -0.259191 -0.738157 -0.622852
vn -0.077482 -0.085628 0.993310
vn 0.196111 0.813073 -0.548135
vn 0.169411 0.966409 0.193273
vn -0.070579 -0.844380 -0.531075
vn -0.083532 -0.994008 -0.070503
vn 0.259194 -0.738158 -0.622850
vn 0.077504 -0.085628 0.993308
vn -0.188332 0.340853 0.921059
vn -0.188332 0.340853 0.921059
vn 0.169411 0.966409 0.193273
vn 0.094874 0.925860 0.365763
vn -0.034852 0.104678 0.993895
vn -0.034852 0.104678 0.993895
vn 0.186645 0.330206 0.925272
vn 0.186645 0.330206 0.925272
vn 0.636262 -0.771245 0.018783
vn 0.120304 -0.798197 0.590261
vn -0.108832 -0.043972 0.993087
vn 0.220281 -0.050952 0.974105
vn 0.120304 -0.798197 0.590261
vn 0.003068 -0.277009 0.960862
vn -0.385210 -0.145050 0.911358
vn -0.108832 -0.043972 0.993087
vn -0.239705 -0.312616 -0.919137
vn -0.264906 -0.062639 -0.962238
vn -0.081664 -0.271350 -0.959010
vn -0.081664 -0.271350 -0.959010
vn 0.979263 -0.198148 -0.042215
vn 0.636262 -0.771245 0.018783
vn 0.970770 0.047559 -0.235251
vn 0.970770 0.047559 -0.235251
vn -0.120304 -0.798197 0.590261
vn -0.636262 -0.771245 0.018783
vn -0.220281 -0.050952 0.974105
vn 0.108832 -0.043972 0.993087
vn -0.636262 -0.771245 0.018783
vn -0.979263 -0.198148 -0.042215
vn -0.970770 0.047559 -0.235251
vn -0.970770 0.047559 -0.235251
vn 0.264927 -0.070626 -0.961679
vn 0.239705 -0.312616 -0.919137
vn 0.081664 -0.271350 -0.959010
vn 0.081664 -0.271350 -0.959010
vn -0.003068 -0.277009 0.960862
vn -0.120304 -0.798197 0.590261
vn 0.108832 -0.043972 0.993087
vn 0.385210 -0.145050 0.911358
vn 0.640172 -0.768185 0.008409
vn -0.534718 0.051138 0.843482
vn 0.937982 -0.332712 -0.097432
vn 0.937982 -0.332712 -0.097432
vn -0.534718 0.051138 0.843482
vn -0.157265 -0.258349 -0.953165
vn -0.157265 -0.258349 -0.953165
vn 0.987148 -0.076231 -0.140459
vn 0.428414 0.153576 0.890436
vn 0.428414 0.153576 0.890436
vn -0.534718 0.051138 0.843482
vn -0.534718 0.051138 0.843482
vn -0.157265 -0.258349 -0.953165
vn -0.157265 -0.258349 -0.953165
vn 0.937982 -0.332712 -0.097432
vn 0.987148 -0.076231 -0.140459
vn -0.937982 -0.332712 -0.097432
vn -0.937982 -0.332712 -0.097432
vn -0.640172 -0.768185 0.008409
vn 0.534718 0.051138 0.843482
vn -0.987148 -0.076231 -0.140459
vn 0.157265 -0.258349 -0.953165
vn 0.157265 -0.258349 -0.953165
vn 0.534718 0.051138 0.843482
vn -0.428414 0.153576 0.890436
vn -0.428414 0.153576 0.890436
vn -0.987148 -0.076231 -0.140459
vn -0.937982 -0.332712 -0.097432
vn 0.157265 -0.258349 -0.953165
vn 0.157265 -0.258349 -0.953165
vn 0.534718 0.051138 0.843482
vn 0.534718 0.051138 0.843482
#end 312 vertex normals

#begin 78 faces
usemtl white
f 5//4 6//3 2//2 1//1 
usemtl white
f 2//8 18//7 17//6 1//5 
usemtl white
f 1//9 17//10 25//11 5//12 
usemtl white
f 14//16 10//15 46//240 47//242 
usemtl white
f 11//20 15//19 48//248 45//234 
usemtl white
f 7//24 8//23 4//22 3//21 
usemtl white
f 3//28 4//27 20//26 19//25 
usemtl white
f 4//29 8//30 28//31 20//32 
usemtl white
f 5//36 25//35 26//34 6//33 
usemtl white
f 31//40 44//232 48//247 15//37 
usemtl white
f 7//44 27//43 28//42 8//41 
usemtl white
f 18//48 22//47 21//46 17//45 
usemtl white
f 17//49 21//50 29//51 25//52 
usemtl white
f 30//56 14//55 47//241 43//226 
usemtl white
f 20//60 24//59 23//58 19//57 
usemtl white
f 20//61 28//62 32//63 24//64 
usemtl white
f 25//68 29//67 30//66 26//65 
usemtl white
f 22//72 42//224 46//239 10//69 
usemtl white
f 27//76 31//75 32//74 28//73 
usemtl white
f 22//80 10//79 9//78 21//77 
usemtl white
f 21//81 9//82 13//83 29//84 
usemtl white
f 23//88 11//87 45//233 41//218 
usemtl white
f 24//92 12//91 11//90 23//89 
usemtl white
f 24//93 32//94 16//95 12//96 
usemtl white
f 29//100 13//99 14//98 30//97 
usemtl white
f 27//104 40//216 44//231 31//101 
usemtl white
f 31//108 15//107 16//106 32//105 
usemtl white
f 10//112 14//111 13//110 9//109 
usemtl white
f 26//116 30//115 43//225 39//210 
usemtl white
f 12//120 16//119 15//118 11//117 
usemtl white
f 18//124 38//208 42//223 22//121 
usemtl white
f 19//128 23//127 41//217 37//202 
usemtl white
f 7//132 35//194 40//215 27//129 
usemtl white
f 6//136 26//135 39//209 33//188 
usemtl white
f 2//140 34//190 38//207 18//137 
usemtl white
f 3//144 19//143 37//201 36//200 
usemtl white
f 3//148 36//199 35//193 7//145 
usemtl white
f 6//152 33//187 34//189 2//149 
usemtl white
f 49//151 68//150 66//153 65//154 
usemtl white
f 51//147 71//146 69//155 70//156 
usemtl white
f 53//142 72//141 36//157 37//158 
usemtl white
f 52//139 54//138 38//159 34//160 
usemtl white
f 55//134 67//133 33//161 39//162 
usemtl white
f 50//131 56//130 40//163 35//164 
usemtl white
f 57//126 53//125 37//165 41//166 
usemtl white
f 54//123 58//122 42//167 38//168 
usemtl white
f 59//114 55//113 39//169 43//170 
usemtl white
f 52//191 67//185 50//220 72//219 
usemtl white
f 54//195 52//192 72//222 53//221 
usemtl white
f 56//103 60//102 44//171 40//172 
usemtl white
f 61//86 57//85 41//173 45//174 
usemtl white
f 67//186 55//197 56//228 50//227 
usemtl white
f 58//203 54//196 53//230 57//229 
usemtl white
f 58//71 62//70 46//175 42//176 
usemtl white
f 63//54 59//53 43//177 47//178 
usemtl white
f 55//198 59//205 60//236 56//235 
usemtl white
f 62//211 58//204 57//238 61//237 
usemtl white
f 60//39 64//38 48//179 44//180 
usemtl white
f 64//18 61//17 45//181 48//182 
usemtl white
f 59//206 63//213 64//244 60//243 
usemtl white
f 63//214 62//212 61//246 64//245 
usemtl white
f 62//14 63//13 47//183 46//184 
usemtl white
f 67//249 52//250 73//281 74//283 
usemtl white
f 52//253 34//254 75//285 73//282 
usemtl white
f 34//257 33//258 76//287 75//286 
usemtl white
f 33//261 67//262 74//284 76//288 
usemtl white
f 72//265 50//266 77//297 78//299 
usemtl white
f 50//269 35//270 79//301 77//298 
usemtl white
f 35//273 36//274 80//303 79//302 
usemtl white
f 36//277 72//278 78//300 80//304 
usemtl white
f 68//251 49//252 74//290 73//289 
usemtl white
f 66//255 68//256 73//292 75//291 
usemtl white
f 65//259 66//260 75//294 76//293 
usemtl white
f 49//263 65//264 76//296 74//295 
usemtl white
f 71//267 51//268 78//306 77//305 
usemtl white
f 69//271 71//272 77//308 79//307 
usemtl white
f 70//275 69//276 79//310 80//309 
usemtl white
f 51//279 70//280 80//312 78//311 
#end 78 faces
