# XSI Wavefront OBJ Export v3.0
# File Created: Wed Apr 04 18:30:00 2012
# XSI Version: 8.0.201.0
mtllib Anatomy_CO1.mtl

o CO1
# Hierarchy (from self to top father)
g CO1

#begin 24 vertices
v 0.005834 100.823044 -8.457976
v 0.024334 100.823044 -8.457976
v -0.036725 101.013814 -8.449490
v 0.040860 101.013814 -8.449490
v 0.002400 101.296201 -8.481657
v 0.113017 101.296201 -8.481657
v -0.061362 101.699799 -8.333025
v 0.094951 101.701346 -8.336076
v -0.067204 101.737986 -8.319221
v 0.101054 101.739651 -8.322505
v 0.005834 100.821051 -8.439584
v 0.024334 100.821051 -8.439584
v -0.036725 101.005456 -8.372357
v 0.040860 101.005456 -8.372357
v 0.002400 101.284284 -8.371684
v 0.113017 101.284284 -8.371684
v -0.064783 101.639677 -8.214400
v 0.091531 101.641223 -8.217451
v -0.070886 101.673270 -8.191531
v 0.097372 101.674934 -8.194815
v -0.058721 101.499004 -8.411891
v 0.062377 101.499004 -8.411891
v -0.058721 101.456100 -8.298647
v 0.062377 101.456100 -8.298647
#end 24 vertices

#begin 88 normals
vn 0.000000 0.044437 -0.999012
vn 0.000000 -0.034479 -0.999405
vn 0.000000 -0.034479 -0.999405
vn 0.000000 0.044437 -0.999012
vn 0.000000 -0.994180 -0.107730
vn 0.000000 -0.994180 -0.107730
vn 0.000000 -0.994180 -0.107730
vn 0.000000 -0.994180 -0.107730
vn -0.975959 -0.216684 -0.023480
vn -0.975959 -0.216684 -0.023480
vn -0.999209 -0.039527 -0.004283
vn -0.999209 -0.039527 -0.004283
vn 0.996261 -0.085890 -0.009307
vn 0.985493 -0.168731 -0.018284
vn 0.985493 -0.168731 -0.018284
vn 0.996261 -0.085890 -0.009307
vn 0.000000 -0.034479 -0.999405
vn 0.000000 0.108738 -0.994070
vn 0.000000 0.108738 -0.994070
vn 0.000000 -0.034479 -0.999405
vn -0.999209 -0.039527 -0.004283
vn -0.999209 -0.039527 -0.004283
vn -0.996790 -0.074942 -0.028169
vn -0.996790 -0.074942 -0.028169
vn 0.985493 -0.168731 -0.018284
vn 0.999850 -0.005581 0.016367
vn 0.999850 -0.005581 0.016367
vn 0.985493 -0.168731 -0.018284
vn 0.000000 0.108738 -0.994070
vn -0.016986 0.347996 -0.937342
vn -0.016986 0.347996 -0.937342
vn 0.000000 0.108738 -0.994070
vn -0.996790 -0.074942 -0.028169
vn -0.996790 -0.074942 -0.028169
vn -0.996264 -0.066591 -0.054991
vn -0.996264 -0.066591 -0.054991
vn 0.999850 -0.005581 0.016367
vn 0.989068 -0.140348 -0.045250
vn 0.989068 -0.140348 -0.045250
vn 0.999850 -0.005581 0.016367
vn -0.016986 0.347996 -0.937342
vn -0.021704 0.336940 -0.941276
vn -0.021704 0.336940 -0.941276
vn -0.016986 0.347996 -0.937342
vn -0.996264 -0.066591 -0.054991
vn -0.996264 -0.066591 -0.054991
vn -0.988890 -0.119140 -0.088896
vn -0.988890 -0.119140 -0.088896
vn 0.989068 -0.140348 -0.045250
vn 0.988890 -0.142135 -0.043526
vn 0.988890 -0.142135 -0.043526
vn 0.989068 -0.140348 -0.045250
vn 0.000000 0.891977 0.452080
vn 0.000000 0.891977 0.452080
vn 0.000000 0.891977 0.452080
vn 0.000000 0.891977 0.452080
vn 0.000000 -0.342511 0.939514
vn 0.000000 -0.342511 0.939514
vn 0.000000 -0.175094 0.984552
vn 0.000000 -0.175094 0.984552
vn 0.000000 -0.175094 0.984552
vn 0.000000 -0.175094 0.984552
vn 0.000000 -0.200805 0.979631
vn 0.000000 -0.200805 0.979631
vn 0.000000 -0.200805 0.979631
vn 0.000000 -0.200805 0.979631
vn 0.017073 -0.486763 0.873367
vn 0.017073 -0.486763 0.873367
vn 0.017073 -0.486763 0.873367
vn 0.017073 -0.486763 0.873367
vn 0.021704 -0.559915 0.828266
vn 0.021704 -0.559915 0.828266
vn -0.006133 0.342210 -0.939603
vn -0.987470 -0.150979 -0.045908
vn -0.006133 0.342210 -0.939603
vn 0.998654 0.051510 0.006049
vn -0.987470 -0.150979 -0.045908
vn 0.006158 -0.400637 0.916216
vn 0.998654 0.051510 0.006049
vn 0.006158 -0.400637 0.916216
vn -0.006133 0.342210 -0.939603
vn -0.006133 0.342210 -0.939603
vn -0.987470 -0.150979 -0.045908
vn -0.987470 -0.150979 -0.045908
vn 0.998654 0.051510 0.006049
vn 0.998654 0.051510 0.006049
vn 0.006158 -0.400637 0.916216
vn 0.006158 -0.400637 0.916216
#end 88 vertex normals

#begin 22 faces
usemtl cranial_material1
f 1//1 3//2 4//3 2//4 
usemtl cranial_material1
f 1//5 2//6 12//7 11//8 
usemtl cranial_material1
f 1//9 11//10 13//11 3//12 
usemtl cranial_material1
f 2//13 4//14 14//15 12//16 
usemtl cranial_material1
f 3//17 5//18 6//19 4//20 
usemtl cranial_material1
f 3//21 13//22 15//23 5//24 
usemtl cranial_material1
f 4//25 6//26 16//27 14//28 
usemtl cranial_material1
f 5//29 21//73 22//75 6//32 
usemtl cranial_material1
f 5//33 15//34 23//77 21//74 
usemtl cranial_material1
f 6//37 22//76 24//79 16//40 
usemtl cranial_material1
f 7//41 9//42 10//43 8//44 
usemtl cranial_material1
f 7//45 17//46 19//47 9//48 
usemtl cranial_material1
f 8//49 10//50 20//51 18//52 
usemtl cranial_material1
f 9//53 19//54 20//55 10//56 
usemtl cranial_material1
f 11//57 12//58 14//59 13//60 
usemtl cranial_material1
f 13//61 14//62 16//63 15//64 
usemtl cranial_material1
f 15//65 16//66 24//80 23//78 
usemtl cranial_material1
f 17//69 18//70 20//71 19//72 
usemtl cranial_material1
f 7//30 8//31 22//82 21//81 
usemtl cranial_material1
f 17//35 7//36 21//84 23//83 
usemtl cranial_material1
f 8//38 18//39 24//86 22//85 
usemtl cranial_material1
f 18//67 17//68 23//88 24//87 
#end 22 faces
