# XSI Wavefront OBJ Export v3.0
# File Created: Wed Apr 04 18:30:05 2012
# XSI Version: 8.0.201.0
mtllib Anatomy_Falciform_ligament.mtl

o Falciform_ligament
# Hierarchy (from self to top father)
g Falciform_ligament

#begin 52 vertices
v -1.216429 117.818810 6.372060
v -1.135997 118.048990 7.421201
v -0.348771 124.091747 6.070289
v -0.848130 124.065635 6.003735
v -1.314183 119.018313 7.832607
v -1.104295 119.000708 7.849658
v -0.961608 121.930415 7.675740
v -1.143165 121.922420 7.663776
v -1.132911 121.905142 7.519712
v -0.951354 121.913137 7.531676
v -0.918026 123.155803 6.578649
v -0.495798 123.174396 6.606472
v -0.594357 122.518067 4.816288
v -0.313530 123.706747 6.024016
v -1.392601 117.984657 7.570734
v -1.156757 117.964875 7.589893
v -0.516735 123.467489 6.728343
v -0.938963 123.448896 6.700520
v -1.332658 118.943455 7.982735
v -1.122770 118.925850 7.999785
v -1.066722 120.618575 7.800548
v -1.317310 120.607540 7.784035
v -1.333050 120.697217 7.962967
v -1.082462 120.708251 7.979480
v -1.371841 118.068773 7.402041
v -0.794723 117.281879 6.858203
v -1.532679 116.726961 6.949711
v -0.704375 116.900175 6.909126
v -1.623027 117.108665 6.931083
v -0.831779 117.290068 6.809837
v -1.503285 116.709663 6.907358
v -0.687111 116.921559 6.861379
v 0.797614 124.809550 5.602606
v -1.711628 124.974787 4.923152
v -0.812889 123.680636 5.957463
v 0.914175 123.518361 5.230754
v -1.706610 123.683597 4.551299
v -0.260290 123.384774 4.597959
v -0.465940 123.441914 4.582607
v -0.237571 123.494021 4.732982
v -0.593942 123.551160 4.717630
v -0.867702 122.423711 4.635879
v -1.225540 122.471452 4.649064
v -0.844346 122.470326 4.803103
v -1.647953 117.078171 6.855816
v -0.973616 117.401764 6.771446
v -1.361448 117.341512 6.406488
v -0.880264 117.408885 6.550868
v -1.454801 117.334391 6.627066
v -1.134525 117.830277 6.396635
v -1.200539 117.820022 6.334514
v -1.118635 117.831489 6.359090
#end 52 vertices

#begin 200 normals
vn -0.010215 -0.435160 0.900295
vn -0.091621 -0.191425 0.977222
vn -0.091621 -0.191425 0.977222
vn -0.010215 -0.435160 0.900295
vn -0.248387 0.872558 0.420650
vn -0.248387 0.872558 0.420650
vn -0.131639 0.991014 -0.023718
vn -0.131639 0.991014 -0.023718
vn 0.982681 0.090361 0.161780
vn 0.982681 0.090361 0.161780
vn 0.994361 -0.046334 0.095386
vn 0.994361 -0.046334 0.095386
vn -0.994957 0.045651 -0.089315
vn -0.994957 0.045651 -0.089315
vn -0.989490 0.046906 0.136784
vn -0.989490 0.046906 0.136784
vn -0.004199 0.459044 -0.888404
vn -0.004199 0.459044 -0.888404
vn 0.092309 0.191844 -0.977075
vn 0.092309 0.191844 -0.977075
vn -0.123228 0.719737 0.683223
vn -0.123228 0.719737 0.683223
vn -0.092219 0.647354 0.756590
vn -0.092219 0.647354 0.756590
vn -0.092219 0.647354 0.756590
vn -0.092219 0.647354 0.756590
vn -0.077769 0.398591 0.913826
vn -0.077769 0.398591 0.913826
vn 0.994361 -0.046334 0.095386
vn 0.977700 -0.100511 0.184393
vn 0.977700 -0.100511 0.184393
vn 0.994361 -0.046334 0.095386
vn -0.994957 0.045651 -0.089315
vn -0.986979 0.079219 -0.139988
vn -0.986979 0.079219 -0.139988
vn -0.994957 0.045651 -0.089315
vn 0.092309 0.191844 -0.977075
vn 0.078059 -0.418787 -0.904723
vn 0.078059 -0.418787 -0.904723
vn 0.092309 0.191844 -0.977075
vn -0.077769 0.398591 0.913826
vn -0.091621 -0.191425 0.977222
vn -0.091621 -0.191425 0.977222
vn -0.077769 0.398591 0.913826
vn -0.142941 -0.267584 0.952873
vn -0.311101 -0.562883 0.765754
vn -0.482139 -0.159677 0.861420
vn -0.305727 -0.081691 0.948608
vn 0.960100 -0.060410 0.273053
vn 0.784868 -0.085787 0.613696
vn 0.784868 -0.085787 0.613696
vn 0.960100 -0.060410 0.273053
vn 0.078059 -0.418787 -0.904723
vn 0.091249 -0.687595 -0.720338
vn 0.091249 -0.687595 -0.720338
vn 0.078059 -0.418787 -0.904723
vn -0.986979 0.079219 -0.139988
vn -0.986979 0.079219 -0.139988
vn -0.985493 0.000699 -0.169714
vn -0.985493 0.000699 -0.169714
vn 0.977700 -0.100511 0.184393
vn 0.960100 -0.060410 0.273053
vn 0.960100 -0.060410 0.273053
vn 0.977700 -0.100511 0.184393
vn 0.091249 -0.687595 -0.720338
vn 0.021926 -0.951163 -0.307908
vn 0.021926 -0.951163 -0.307908
vn 0.091249 -0.687595 -0.720338
vn -0.985493 0.000699 -0.169714
vn -0.985493 0.000699 -0.169714
vn -0.976398 -0.102164 0.190288
vn -0.976398 -0.102164 0.190288
vn 0.993586 -0.045192 0.103658
vn 0.073136 -0.120593 -0.990004
vn -0.992068 0.058365 -0.111328
vn 0.073136 -0.120593 -0.990004
vn -0.992068 0.058365 -0.111328
vn -0.074060 0.130712 0.988650
vn 0.993586 -0.045192 0.103658
vn -0.074060 0.130712 0.988650
vn 0.993586 -0.045192 0.103658
vn 0.993586 -0.045192 0.103658
vn -0.992068 0.058365 -0.111328
vn -0.992068 0.058365 -0.111328
vn 0.073136 -0.120593 -0.990004
vn 0.073136 -0.120593 -0.990004
vn -0.074060 0.130712 0.988650
vn -0.074060 0.130712 0.988650
vn -0.004199 0.459044 -0.888404
vn -0.004199 0.459044 -0.888404
vn -0.196335 0.833776 -0.516014
vn -0.196335 0.833776 -0.516014
vn 0.982681 0.090361 0.161780
vn 0.982681 0.090361 0.161780
vn 0.960636 0.270700 0.062443
vn 0.960636 0.270700 0.062443
vn -0.010215 -0.435160 0.900295
vn -0.010215 -0.435160 0.900295
vn 0.180431 -0.822519 0.539358
vn 0.180431 -0.822519 0.539358
vn -0.989490 0.046906 0.136784
vn -0.989490 0.046906 0.136784
vn -0.964795 -0.149693 0.216245
vn -0.964795 -0.149693 0.216245
vn -0.196335 0.833776 -0.516014
vn -0.196335 0.833776 -0.516014
vn -0.236084 0.882106 0.407619
vn -0.236084 0.882106 0.407619
vn 0.960636 0.270700 0.062443
vn 0.960636 0.270700 0.062443
vn 0.912878 0.407977 -0.014462
vn 0.912878 0.407977 -0.014462
vn 0.180431 -0.822519 0.539358
vn 0.180431 -0.822519 0.539358
vn 0.236652 -0.879390 -0.413121
vn 0.236652 -0.879390 -0.413121
vn -0.964795 -0.149693 0.216245
vn -0.964795 -0.149693 0.216245
vn -0.919558 -0.271532 -0.284049
vn -0.919558 -0.271532 -0.284049
vn -0.976398 -0.102164 0.190288
vn -0.976398 -0.102164 0.190288
vn -0.832636 -0.152788 0.532328
vn -0.832636 -0.152788 0.532328
vn -0.123228 0.719737 0.683223
vn -0.123228 0.719737 0.683223
vn -0.142542 0.695226 0.704516
vn -0.142542 0.695226 0.704516
vn 0.784868 -0.085787 0.613696
vn 0.784868 -0.085787 0.613696
vn 0.491422 -0.168635 0.854440
vn 0.491422 -0.168635 0.854440
vn 0.021926 -0.951163 -0.307908
vn 0.021926 -0.951163 -0.307908
vn -0.117456 -0.958117 0.261182
vn -0.117456 -0.958117 0.261182
vn 0.061722 0.189915 -0.979858
vn 0.161578 0.305564 -0.938362
vn 0.107331 0.189384 -0.976019
vn 0.061722 0.189915 -0.979858
vn 0.161578 0.305564 -0.938362
vn 0.352761 0.322594 -0.878346
vn 0.240317 0.204155 -0.948983
vn 0.107331 0.189384 -0.976019
vn 0.352761 0.322594 -0.878346
vn 0.442003 0.226024 -0.868071
vn 0.442003 0.226024 -0.868071
vn 0.240317 0.204155 -0.948983
vn -0.117456 -0.958117 0.261182
vn -0.117456 -0.958117 0.261182
vn -0.168112 -0.883298 0.437634
vn -0.168112 -0.883298 0.437634
vn -0.270514 0.182416 0.945276
vn -0.556277 0.275621 0.783958
vn -0.482139 -0.159677 0.861420
vn -0.305727 -0.081691 0.948608
vn 0.107331 0.189384 -0.976019
vn 0.240317 0.204155 -0.948983
vn -0.005483 -0.050089 -0.998730
vn -0.005483 -0.050089 -0.998730
vn 0.848523 -0.511765 0.134555
vn 0.848523 -0.511765 0.134555
vn 0.848523 -0.511765 0.134555
vn 0.848523 -0.511765 0.134555
vn 0.046730 0.067984 0.996591
vn -0.270514 0.182416 0.945276
vn -0.305727 -0.081691 0.948608
vn -0.142941 -0.267584 0.952873
vn -0.236084 0.882106 0.407619
vn -0.236084 0.882106 0.407619
vn -0.248729 0.577077 0.777892
vn -0.248729 0.577077 0.777892
vn 0.912878 0.407977 -0.014462
vn 0.912878 0.407977 -0.014462
vn 0.806294 0.553102 0.209688
vn 0.806294 0.553102 0.209688
vn 0.236652 -0.879390 -0.413121
vn 0.236652 -0.879390 -0.413121
vn 0.251121 -0.414180 -0.874867
vn 0.251121 -0.414180 -0.874867
vn -0.919558 -0.271532 -0.284049
vn -0.919558 -0.271532 -0.284049
vn -0.859988 0.015579 -0.510076
vn -0.859988 0.015579 -0.510076
vn -0.248729 0.577077 0.777892
vn -0.248729 0.577077 0.777892
vn -0.248387 0.872558 0.420650
vn -0.248387 0.872558 0.420650
vn 0.806294 0.553102 0.209688
vn 0.806294 0.553102 0.209688
vn 0.747534 0.573622 0.334889
vn 0.747534 0.573622 0.334889
vn 0.251121 -0.414180 -0.874867
vn 0.251121 -0.414180 -0.874867
vn 0.309804 -0.242462 -0.919366
vn 0.309804 -0.242462 -0.919366
vn -0.859988 0.015579 -0.510076
vn -0.859988 0.015579 -0.510076
vn -0.895592 0.245343 -0.371110
vn -0.895592 0.245343 -0.371110
#end 200 vertex normals

#begin 50 faces
usemtl yellow
f 16//4 20//3 19//2 15//1 
usemtl yellow
f 1//5 50//6 52//7 51//8 
usemtl yellow
f 6//12 20//11 16//10 2//9 
usemtl yellow
f 25//16 15//15 19//14 5//13 
usemtl yellow
f 5//20 6//19 2//18 25//17 
usemtl yellow
f 18//24 17//23 3//22 4//21 
usemtl yellow
f 8//28 7//27 17//26 18//25 
usemtl yellow
f 6//32 21//73 24//79 20//29 
usemtl yellow
f 19//36 23//77 22//75 5//33 
usemtl yellow
f 5//40 22//76 21//74 6//37 
usemtl yellow
f 8//44 23//78 24//80 7//41 
usemtl yellow
f 13//48 43//47 42//46 44//45 
usemtl yellow
f 12//52 14//51 3//50 17//49 
usemtl yellow
f 9//53 11//54 12//55 10//56 
usemtl yellow
f 9//57 8//58 18//59 11//60 
usemtl yellow
f 10//61 12//62 17//63 7//64 
usemtl yellow
f 11//65 35//66 14//67 12//68 
usemtl yellow
f 11//69 18//70 4//71 35//72 
usemtl yellow
f 10//31 7//30 24//82 21//81 
usemtl yellow
f 8//35 9//34 22//84 23//83 
usemtl yellow
f 9//39 10//38 21//86 22//85 
usemtl yellow
f 19//43 20//42 24//88 23//87 
usemtl yellow
f 25//89 2//90 26//91 29//92 
usemtl yellow
f 2//93 16//94 28//95 26//96 
usemtl yellow
f 16//97 15//98 27//99 28//100 
usemtl yellow
f 15//101 25//102 29//103 27//104 
usemtl yellow
f 29//105 26//106 30//107 45//108 
usemtl yellow
f 26//109 28//110 32//111 30//112 
usemtl yellow
f 28//113 27//114 31//115 32//116 
usemtl yellow
f 27//117 29//118 45//119 31//120 
usemtl yellow
f 35//121 4//122 34//123 37//124 
usemtl yellow
f 4//125 3//126 33//127 34//128 
usemtl yellow
f 3//129 14//130 36//131 33//132 
usemtl yellow
f 14//133 35//134 37//135 36//136 
usemtl yellow
f 37//137 34//138 39//139 41//140 
usemtl yellow
f 34//141 33//142 38//143 39//144 
usemtl yellow
f 33//145 36//146 40//147 38//148 
usemtl yellow
f 36//149 37//150 41//151 40//152 
usemtl yellow
f 41//153 39//154 43//155 13//156 
usemtl yellow
f 39//157 38//158 42//159 43//160 
usemtl yellow
f 38//161 40//162 44//163 42//164 
usemtl yellow
f 40//165 41//166 13//167 44//168 
usemtl yellow
f 45//169 30//170 46//171 49//172 
usemtl yellow
f 30//173 32//174 48//175 46//176 
usemtl yellow
f 32//177 31//178 47//179 48//180 
usemtl yellow
f 31//181 45//182 49//183 47//184 
usemtl yellow
f 49//185 46//186 50//187 1//188 
usemtl yellow
f 46//189 48//190 52//191 50//192 
usemtl yellow
f 48//193 47//194 51//195 52//196 
usemtl yellow
f 47//197 49//198 1//199 51//200 
#end 50 faces
